<svg width="181" height="181" xmlns="http://www.w3.org/2000/svg" xmlns:xlink="http://www.w3.org/1999/xlink" overflow="hidden"><defs><clipPath id="clip0"><path d="M483 119 664 119 664 300 483 300Z" fill-rule="evenodd" clip-rule="evenodd"/></clipPath><clipPath id="clip1"><path d="M483 120 663 120 663 299 483 299Z" fill-rule="evenodd" clip-rule="evenodd"/></clipPath><clipPath id="clip2"><path d="M483 120 663 120 663 299 483 299Z" fill-rule="evenodd" clip-rule="evenodd"/></clipPath></defs><g clip-path="url(#clip0)" transform="translate(-483 -119)"><g clip-path="url(#clip1)"><g clip-path="url(#clip2)"><path d="M187.342 261.131C199.013 261.131 205.022 266.483 205.132 275.373L194.877 276.629C194.767 271.775 192.365 270.141 187.352 270.141 179.499 270.141 178.293 276.409 178.293 283.286 178.293 290.163 179.489 296.431 187.352 296.431 192.375 296.431 194.777 294.797 194.877 289.943L205.132 291.199C205.022 300.089 199.023 305.441 187.342 305.441 173.32 305.441 168.088 296.551 168.088 283.296 168.088 270.031 173.32 261.131 187.342 261.131" fill="#1A3971" transform="matrix(1.00561 0 -0 1 260.825 40.9316)"/><path d="M208.67 283.286C208.67 270.031 214.4 261.131 228.752 261.131 243.043 261.131 248.823 270.021 248.823 283.286 248.823 296.541 243.093 305.431 228.752 305.431 214.45 305.431 208.67 296.541 208.67 283.286M218.865 283.286C218.865 290.163 220.669 296.431 228.742 296.431 236.814 296.431 238.618 290.163 238.618 283.286 238.618 276.409 236.814 270.141 228.742 270.141 220.669 270.141 218.865 276.409 218.865 283.286" fill="#1A3971" transform="matrix(1.00561 0 -0 1 260.825 40.9316)"/><path d="M276.19 280.775 280.117 286.724 280.067 278.811 280.067 262.008 290.163 262.008 290.163 304.564 280.834 304.564 267.898 285.797 263.972 279.848 264.032 287.761 264.032 304.564 253.936 304.564 253.936 262.008 263.264 262.008Z" fill="#1A3971" transform="matrix(1.00561 0 -0 1 260.825 40.9316)"/><path d="M317.151 261.131 333.685 304.554 322.881 304.554 319.772 295.664 305.859 295.664 302.8 304.554 292.006 304.554 308.54 261.131 317.151 261.131ZM308.749 287.482 316.932 287.482 312.835 275.692 308.749 287.482Z" fill="#1A3971" transform="matrix(1.00561 0 -0 1 260.825 40.9316)"/><path d="M354.185 261.131C365.865 261.131 371.865 266.483 371.974 275.373L361.719 276.629C361.609 271.775 359.208 270.141 354.195 270.141 346.341 270.141 345.136 276.409 345.136 283.286 345.136 290.163 346.331 296.431 354.195 296.431 359.218 296.431 361.619 294.797 361.719 289.943L371.974 291.199C371.865 300.089 365.865 305.441 354.185 305.441 340.162 305.441 334.93 296.551 334.93 283.296 334.92 270.031 340.162 261.131 354.185 261.131" fill="#1A3971" transform="matrix(1.00561 0 -0 1 260.825 40.9316)"/><path d="M406.925 262.008 406.925 271.008 386.146 271.008 386.146 278.323 403.985 278.323 403.985 287.322 386.146 287.322 386.146 295.554 408.022 295.554 408.022 304.564 376.05 304.564 376.05 262.008Z" fill="#1A3971" transform="matrix(1.00561 0 -0 1 260.825 40.9316)"/><path d="M412.486 304.564 412.486 262.008 428.472 262.008C442.275 262.008 449.092 268.606 449.092 283.286 449.092 297.956 442.275 304.564 428.472 304.564L412.486 304.564ZM428.472 295.554C436.435 295.554 438.887 290.81 438.887 283.276 438.887 275.742 436.435 270.998 428.472 270.998L422.582 270.998 422.582 295.544 428.472 295.544Z" fill="#1A3971" transform="matrix(1.00561 0 -0 1 260.825 40.9316)"/><path d="M170.111 313.972C172.234 313.972 173.32 314.938 173.34 316.553L171.476 316.782C171.457 315.895 171.018 315.596 170.111 315.596 168.686 315.596 168.467 316.742 168.467 317.988 168.467 319.234 168.686 320.38 170.111 320.38 171.018 320.38 171.457 320.081 171.476 319.204L173.34 319.433C173.32 321.048 172.234 322.014 170.111 322.014 167.56 322.014 166.613 320.4 166.613 317.998 166.613 315.586 167.56 313.972 170.111 313.972" fill="#1A3971" transform="matrix(1.00561 0 -0 1 260.825 40.9316)"/><path d="M173.988 317.998C173.988 315.586 175.024 313.972 177.636 313.972 180.237 313.972 181.283 315.586 181.283 317.998 181.283 320.4 180.247 322.024 177.636 322.024 175.044 322.024 173.988 320.4 173.988 317.998M175.842 317.998C175.842 319.244 176.171 320.39 177.636 320.39 179.101 320.39 179.429 319.254 179.429 317.998 179.429 316.742 179.101 315.606 177.636 315.606 176.171 315.606 175.842 316.752 175.842 317.998" fill="#1A3971" transform="matrix(1.00561 0 -0 1 260.825 40.9316)"/><path d="M186.266 317.539 186.984 318.626 186.974 317.191 186.974 314.131 188.807 314.131 188.807 321.865 187.113 321.865 184.761 318.456 184.054 317.37 184.064 318.805 184.064 321.865 182.23 321.865 182.23 314.131 183.924 314.131Z" fill="#1A3971" transform="matrix(1.00561 0 -0 1 260.825 40.9316)"/><path d="M191.678 321.865 189.844 321.865 189.844 314.131 195.435 314.131 195.435 315.765 191.678 315.765 191.678 317.101 194.897 317.101 194.897 318.735 191.678 318.735Z" fill="#1A3971" transform="matrix(1.00561 0 -0 1 260.825 40.9316)"/><path d="M201.704 314.131 201.704 315.765 197.926 315.765 197.926 317.101 201.175 317.101 201.175 318.735 197.926 318.735 197.926 320.23 201.903 320.23 201.903 321.865 196.093 321.865 196.093 314.131Z" fill="#1A3971" transform="matrix(1.00561 0 -0 1 260.825 40.9316)"/><path d="M202.72 321.865 202.72 314.131 205.62 314.131C208.122 314.131 209.368 315.327 209.368 317.998 209.368 320.659 208.132 321.865 205.62 321.865L202.72 321.865ZM205.63 320.23C207.075 320.23 207.524 319.363 207.524 317.998 207.524 316.633 207.075 315.765 205.63 315.765L204.554 315.765 204.554 320.23 205.63 320.23Z" fill="#1A3971" transform="matrix(1.00561 0 -0 1 260.825 40.9316)"/><path d="M215.905 314.131 215.905 315.765 212.128 315.765 212.128 317.101 215.367 317.101 215.367 318.735 212.128 318.735 212.128 320.23 216.105 320.23 216.105 321.865 210.294 321.865 210.294 314.131Z" fill="#1A3971" transform="matrix(1.00561 0 -0 1 260.825 40.9316)"/><path d="M218.756 321.865 216.922 321.865 216.922 314.131 220.34 314.131C221.735 314.131 223.25 314.53 223.25 316.662 223.25 318.018 222.652 318.676 221.865 318.975L223.629 321.865 221.426 321.865 219.922 319.204 218.756 319.204 218.756 321.865ZM220.48 317.549C220.868 317.549 221.397 317.48 221.397 316.662 221.397 315.845 220.868 315.765 220.48 315.765L218.756 315.765 218.756 317.549 220.48 317.549Z" fill="#1A3971" transform="matrix(1.00561 0 -0 1 260.825 40.9316)"/><path d="M227.984 313.972 230.984 321.855 229.021 321.855 228.453 320.24 225.921 320.24 225.363 321.855 223.4 321.855 226.4 313.972 227.984 313.972ZM226.459 318.765 227.944 318.765 227.197 316.623 226.459 318.765Z" fill="#1A3971" transform="matrix(1.00561 0 -0 1 260.825 40.9316)"/><path d="M234.721 313.972C236.844 313.972 237.93 314.938 237.95 316.553L236.087 316.782C236.067 315.895 235.628 315.596 234.721 315.596 233.296 315.596 233.077 316.742 233.077 317.988 233.077 319.234 233.296 320.38 234.721 320.38 235.628 320.38 236.067 320.081 236.087 319.204L237.95 319.433C237.93 321.048 236.844 322.014 234.721 322.014 232.17 322.014 231.223 320.4 231.223 317.998 231.223 315.586 232.18 313.972 234.721 313.972" fill="#1A3971" transform="matrix(1.00561 0 -0 1 260.825 40.9316)"/><path d="M238.817 314.131 240.651 314.131 240.651 321.865 238.817 321.865Z" fill="#1A3971" transform="matrix(1.00561 0 -0 1 260.825 40.9316)"/><path d="M241.698 317.998C241.698 315.586 242.734 313.972 245.345 313.972 247.936 313.972 248.993 315.586 248.993 317.998 248.993 320.4 247.956 322.024 245.345 322.024 242.744 322.024 241.698 320.4 241.698 317.998M243.551 317.998C243.551 319.244 243.88 320.39 245.345 320.39 246.81 320.39 247.139 319.254 247.139 317.998 247.139 316.752 246.81 315.606 245.345 315.606 243.88 315.606 243.551 316.752 243.551 317.998M247.288 311.659 246.192 313.722 244.418 313.722 245.345 311.659 247.288 311.659Z" fill="#1A3971" transform="matrix(1.00561 0 -0 1 260.825 40.9316)"/><path d="M253.976 317.539 254.683 318.626 254.673 317.191 254.673 314.131 256.507 314.131 256.507 321.865 254.813 321.865 252.471 318.456 251.753 317.37 251.763 318.805 251.763 321.865 249.93 321.865 249.93 314.131 251.624 314.131Z" fill="#1A3971" transform="matrix(1.00561 0 -0 1 260.825 40.9316)"/><path d="M263.772 317.539 264.49 318.626 264.48 317.191 264.48 314.131 266.314 314.131 266.314 321.865 264.62 321.865 262.268 318.456 261.55 317.37 261.56 318.805 261.56 321.865 259.726 321.865 259.726 314.131 261.42 314.131Z" fill="#1A3971" transform="matrix(1.00561 0 -0 1 260.825 40.9316)"/><path d="M271.227 313.972 274.227 321.855 272.264 321.855 271.695 320.24 269.164 320.24 268.606 321.855 266.643 321.855 269.642 313.972 271.227 313.972ZM269.702 318.765 271.187 318.765 270.44 316.623 269.702 318.765Z" fill="#1A3971" transform="matrix(1.00561 0 -0 1 260.825 40.9316)"/><path d="M277.964 313.972C280.087 313.972 281.173 314.938 281.193 316.553L279.329 316.782C279.31 315.895 278.871 315.596 277.964 315.596 276.539 315.596 276.32 316.742 276.32 317.988 276.32 319.234 276.539 320.38 277.964 320.38 278.881 320.38 279.31 320.081 279.329 319.204L281.193 319.433C281.173 321.048 280.087 322.014 277.964 322.014 275.413 322.014 274.466 320.4 274.466 317.998 274.466 315.586 275.413 313.972 277.964 313.972" fill="#1A3971" transform="matrix(1.00561 0 -0 1 260.825 40.9316)"/><path d="M282.05 314.131 283.884 314.131 283.884 321.865 282.05 321.865Z" fill="#1A3971" transform="matrix(1.00561 0 -0 1 260.825 40.9316)"/><path d="M284.93 317.998C284.93 315.586 285.967 313.972 288.578 313.972 291.179 313.972 292.226 315.586 292.226 317.998 292.226 320.4 291.189 322.024 288.578 322.024 285.977 322.024 284.93 320.4 284.93 317.998M286.784 317.998C286.784 319.244 287.113 320.39 288.578 320.39 290.043 320.39 290.372 319.254 290.372 317.998 290.372 316.742 290.043 315.606 288.578 315.606 287.113 315.606 286.784 316.752 286.784 317.998" fill="#1A3971" transform="matrix(1.00561 0 -0 1 260.825 40.9316)"/><path d="M297.209 317.539 297.926 318.626 297.916 317.191 297.916 314.131 299.75 314.131 299.75 321.865 298.046 321.865 295.704 318.456 294.986 317.37 294.996 318.805 294.996 321.865 293.162 321.865 293.162 314.131 294.857 314.131Z" fill="#1A3971" transform="matrix(1.00561 0 -0 1 260.825 40.9316)"/><path d="M304.663 313.972 307.663 321.855 305.7 321.855 305.132 320.24 302.61 320.24 302.052 321.855 300.089 321.855 303.089 313.972 304.663 313.972ZM303.128 318.765 304.613 318.765 303.866 316.623 303.128 318.765Z" fill="#1A3971" transform="matrix(1.00561 0 -0 1 260.825 40.9316)"/><path d="M309.846 320.23 313.364 320.23 313.364 321.865 308.012 321.865 308.012 314.131 309.846 314.131Z" fill="#1A3971" transform="matrix(1.00561 0 -0 1 260.825 40.9316)"/><path d="M319.533 313.972C321.655 313.972 322.742 314.938 322.762 316.553L320.898 316.782C320.878 315.895 320.44 315.596 319.533 315.596 318.108 315.596 317.888 316.742 317.888 317.988 317.888 319.234 318.108 320.38 319.533 320.38 320.44 320.38 320.878 320.081 320.898 319.204L322.762 319.433C322.742 321.048 321.655 322.014 319.533 322.014 316.981 322.014 316.035 320.4 316.035 317.998 316.035 315.586 316.981 313.972 319.533 313.972" fill="#1A3971" transform="matrix(1.00561 0 -0 1 260.825 40.9316)"/><path d="M327.386 313.972 330.386 321.855 328.422 321.855 327.854 320.24 325.323 320.24 324.765 321.855 322.802 321.855 325.801 313.972 327.386 313.972ZM325.861 318.765 327.346 318.765 326.599 316.623 325.861 318.765Z" fill="#1A3971" transform="matrix(1.00561 0 -0 1 260.825 40.9316)"/><path d="M333.655 321.865 331.821 321.865 331.821 315.765 329.698 315.765 329.698 314.131 335.767 314.131 335.767 315.765 333.655 315.765Z" fill="#1A3971" transform="matrix(1.00561 0 -0 1 260.825 40.9316)"/><path d="M335.967 317.998C335.967 315.586 337.013 313.972 339.614 313.972 342.206 313.972 343.262 315.586 343.262 317.998 343.262 320.4 342.225 322.024 339.614 322.024 337.013 322.024 335.967 320.4 335.967 317.998M337.82 317.998C337.82 319.244 338.149 320.39 339.614 320.39 341.079 320.39 341.408 319.254 341.408 317.998 341.408 316.752 341.079 315.606 339.614 315.606 338.149 315.606 337.82 316.752 337.82 317.998M341.558 311.659 340.461 313.722 338.687 313.722 339.614 311.659 341.558 311.659Z" fill="#1A3971" transform="matrix(1.00561 0 -0 1 260.825 40.9316)"/><path d="M346.032 320.23 349.551 320.23 349.551 321.865 344.199 321.865 344.199 314.131 346.032 314.131Z" fill="#1A3971" transform="matrix(1.00561 0 -0 1 260.825 40.9316)"/><path d="M350.258 314.131 352.092 314.131 352.092 321.865 350.258 321.865Z" fill="#1A3971" transform="matrix(1.00561 0 -0 1 260.825 40.9316)"/><path d="M356.626 313.972C358.749 313.972 359.836 314.938 359.855 316.553L357.992 316.782C357.972 315.895 357.533 315.596 356.626 315.596 355.201 315.596 354.982 316.742 354.982 317.988 354.982 319.234 355.201 320.38 356.626 320.38 357.533 320.38 357.972 320.081 357.992 319.204L359.855 319.433C359.836 321.048 358.749 322.014 356.626 322.014 354.075 322.014 353.128 320.4 353.128 317.998 353.128 315.586 354.075 313.972 356.626 313.972" fill="#1A3971" transform="matrix(1.00561 0 -0 1 260.825 40.9316)"/><path d="M364.48 313.972 367.479 321.855 365.516 321.855 364.948 320.24 362.417 320.24 361.859 321.855 359.895 321.855 362.895 313.972 364.48 313.972ZM362.955 318.765 364.44 318.765 363.692 316.623 362.955 318.765Z" fill="#1A3971" transform="matrix(1.00561 0 -0 1 260.825 40.9316)"/><path d="M370.011 321.865 370.011 314.131 372.911 314.131C375.413 314.131 376.658 315.327 376.658 317.998 376.658 320.659 375.422 321.865 372.911 321.865L370.011 321.865ZM372.921 320.23C374.366 320.23 374.815 319.363 374.815 317.998 374.815 316.633 374.366 315.765 372.921 315.765L371.845 315.765 371.845 320.23 372.921 320.23Z" fill="#1A3971" transform="matrix(1.00561 0 -0 1 260.825 40.9316)"/><path d="M383.196 314.131 383.196 315.765 379.419 315.765 379.419 317.101 382.658 317.101 382.658 318.735 379.419 318.735 379.419 320.23 383.395 320.23 383.395 321.865 377.585 321.865 377.585 314.131Z" fill="#1A3971" transform="matrix(1.00561 0 -0 1 260.825 40.9316)"/><path d="M392.006 314.131 392.006 315.765 388.229 315.765 388.229 317.101 391.468 317.101 391.468 318.735 388.229 318.735 388.229 320.23 392.205 320.23 392.205 321.865 386.395 321.865 386.395 314.131Z" fill="#1A3971" transform="matrix(1.00561 0 -0 1 260.825 40.9316)"/><path d="M393.023 321.865 393.023 314.131 395.923 314.131C398.424 314.131 399.67 315.327 399.67 317.998 399.67 320.659 398.434 321.865 395.923 321.865L393.023 321.865ZM395.923 320.23C397.368 320.23 397.816 319.363 397.816 317.998 397.816 316.633 397.368 315.765 395.923 315.765L394.846 315.765 394.846 320.23 395.923 320.23Z" fill="#1A3971" transform="matrix(1.00561 0 -0 1 260.825 40.9316)"/><path d="M405.221 318.985 405.221 314.141 407.055 314.141 407.055 319.024C407.055 320.739 406.347 322.024 403.776 322.024 401.195 322.024 400.497 320.739 400.497 319.024L400.497 314.141 402.331 314.141 402.331 318.985C402.331 319.762 402.48 320.4 403.776 320.4 405.072 320.4 405.221 319.752 405.221 318.985" fill="#1A3971" transform="matrix(1.00561 0 -0 1 260.825 40.9316)"/><path d="M411.38 313.972C413.503 313.972 414.589 314.938 414.609 316.553L412.745 316.782C412.726 315.895 412.287 315.596 411.38 315.596 409.955 315.596 409.736 316.742 409.736 317.988 409.736 319.234 409.955 320.38 411.38 320.38 412.287 320.38 412.726 320.081 412.745 319.204L414.609 319.433C414.589 321.048 413.503 322.014 411.38 322.014 408.829 322.014 407.882 320.4 407.882 317.998 407.882 315.586 408.839 313.972 411.38 313.972" fill="#1A3971" transform="matrix(1.00561 0 -0 1 260.825 40.9316)"/><path d="M419.233 313.972 422.233 321.855 420.27 321.855 419.702 320.24 417.17 320.24 416.612 321.855 414.649 321.855 417.649 313.972 419.233 313.972ZM417.709 318.765 419.194 318.765 418.446 316.623 417.709 318.765Z" fill="#1A3971" transform="matrix(1.00561 0 -0 1 260.825 40.9316)"/><path d="M425.98 313.972C428.103 313.972 429.189 314.938 429.209 316.553L427.346 316.782C427.326 315.895 426.897 315.596 425.98 315.596 424.555 315.596 424.336 316.742 424.336 317.988 424.336 319.234 424.555 320.38 425.98 320.38 426.897 320.38 427.326 320.081 427.346 319.204L429.209 319.433C429.189 321.048 428.103 322.014 425.98 322.014 423.429 322.014 422.482 320.4 422.482 317.998 422.482 315.586 423.429 313.972 425.98 313.972" fill="#1A3971" transform="matrix(1.00561 0 -0 1 260.825 40.9316)"/><path d="M430.067 314.131 431.9 314.131 431.9 321.865 430.067 321.865Z" fill="#1A3971" transform="matrix(1.00561 0 -0 1 260.825 40.9316)"/><path d="M432.947 317.998C432.947 315.586 433.993 313.972 436.594 313.972 439.195 313.972 440.242 315.586 440.242 317.998 440.242 320.4 439.205 322.024 436.594 322.024 433.993 322.024 432.947 320.4 432.947 317.998M434.8 317.998C434.8 319.244 435.129 320.39 436.594 320.39 438.059 320.39 438.388 319.254 438.388 317.998 438.388 316.752 438.059 315.606 436.594 315.606 435.119 315.606 434.8 316.752 434.8 317.998M438.538 311.659 437.441 313.722 435.667 313.722 436.594 311.659 438.538 311.659Z" fill="#1A3971" transform="matrix(1.00561 0 -0 1 260.825 40.9316)"/><path d="M445.225 317.539 445.933 318.626 445.933 317.191 445.933 314.131 447.766 314.131 447.766 321.865 446.062 321.865 443.72 318.456 443.003 317.37 443.012 318.805 443.012 321.865 441.179 321.865 441.179 314.131 442.873 314.131Z" fill="#1A3971" transform="matrix(1.00561 0 -0 1 260.825 40.9316)"/><path d="M166.155 309.248 450.417 309.248 450.417 309.596 166.155 309.596Z" fill="#1A3971" fill-rule="evenodd" transform="matrix(1.00561 0 -0 1 260.825 40.9316)"/><path d="M390.89 166.234C390.89 211.53 354.185 248.255 308.879 248.255 263.583 248.255 226.878 211.53 226.878 166.234 226.878 120.928 263.583 84.2234 308.879 84.2234 354.185 84.2234 390.89 120.928 390.89 166.234" fill="#FFFFFF" transform="matrix(1.00561 0 -0 1 260.825 40.9316)"/><path d="M308.879 250.209C262.576 250.209 224.905 212.537 224.905 166.234 224.905 119.922 262.576 82.2601 308.879 82.2601 355.191 82.2601 392.863 119.922 392.863 166.234 392.863 212.537 355.181 250.209 308.879 250.209M308.879 86.1867C264.739 86.1867 228.831 122.085 228.831 166.234 228.831 210.374 264.729 246.282 308.879 246.282 353.029 246.282 388.946 210.384 388.946 166.234 388.936 122.085 353.029 86.1867 308.879 86.1867" fill="#123871" transform="matrix(1.00561 0 -0 1 260.825 40.9316)"/><path d="M275.164 147.578 279.06 147.488 275.164 147.578Z" fill="#123871" transform="matrix(1.00561 0 -0 1 260.825 40.9316)"/><path d="M276.459 140.442 273.918 140.422 276.459 140.442Z" fill="#123871" transform="matrix(1.00561 0 -0 1 260.825 40.9316)"/><path d="M280.326 191.518 280.326 191.518C280.296 191.399 280.226 191.07 280.216 191.01 280.246 191.09 280.306 191.399 280.326 191.518" fill="#123871" transform="matrix(1.00561 0 -0 1 260.825 40.9316)"/><path d="M272.782 165.178 274.137 166.035 272.792 165.178Z" fill="#123871" transform="matrix(1.00561 0 -0 1 260.825 40.9316)"/><path d="M282.698 160.554 283.226 161.052 281.074 159.029Z" fill="#123871" transform="matrix(1.00561 0 -0 1 260.825 40.9316)"/><path d="M292.036 130.287 292.056 130.287 292.046 130.336 292.106 130.047 292.056 130.287Z" fill="#123871" transform="matrix(1.00561 0 -0 1 260.825 40.9316)"/><path d="M294.627 164.979 294.637 165.148 294.677 165.088 294.109 163.932Z" fill="#123871" transform="matrix(1.00561 0 -0 1 260.825 40.9316)"/><path d="M362.686 188.768 361.36 184.791 360.872 182.559 359.756 181.582 359.895 180.057 357.613 178.034 356.915 177.964 356.557 176.988 353.786 176.36 357.962 172.872 359.138 172.114 358.869 170.859 357.264 168.068 356.288 168.267 355.67 165.826 354.743 164.361 354.952 162.208 353.916 161.301 354.603 158.242 354.264 155.042 355.989 153.787 356.626 153.149 355.989 152.033 356.407 150.428 358.002 148.963 357.384 147.428 356.756 146.661 354.892 146.183 353.138 147.229 352.371 146.96 346.511 147.359 343.372 146.96 341.279 148.275 340.302 147.847 339.465 147.508 333.764 140.741 332.907 140.462 332.429 141.02 331.661 141.02C332.429 141.02 329.22 139.844 329.22 139.844L327.266 139.764 325.871 140.741 316.842 140.313 315.566 137.951 315.526 137.113 313.364 137.064 312.666 134.951 312.616 132.569 313.653 132.11 313.553 128.742 311.111 126.37 309.885 122.463 308.759 122.224 307.972 121.038 306.936 120.948 306.716 121.287 306.746 120.251 306.796 120.061 307.015 119.673 307.404 119.643 307.434 118.995 308.5 117.44 308.65 116.992 308.112 117.042 308.5 116.494 308.65 116.035 308.112 116.095 308.102 115.985 308.45 115.377 308.839 115.338 308.899 113.564 308.959 113.334 308.869 113.474 308.879 113.015 308.919 112.527 308.959 112.378 313.404 105.421 314.729 105.122 317.181 100.697 319.194 100.568 322.293 99.2024 324.735 97.3986 323.26 94.9469 321.356 94.0799 319.543 94.0201 317.28 95.2359 317.719 96.2325 316.941 96.4717 316.543 95.5449 315.227 95.5449 315.227 97.558 313.752 99.0629 312.487 99.5114 309.995 100.199 305.371 103.936 302.76 104.076 300.487 103.936 299.262 103.189 297.737 103.139 296.999 103.936 297.089 105.969 296.362 106.368 294.887 106.428 292.634 105.551 291.658 105.551 291.408 105.401 289.306 107.594 288.08 108.142 288.04 109.517 288.07 108.351C287.721 108.541 285.827 109.607 285.827 109.607L285.778 114.451 284.711 115.706 284.621 116.593 284.043 117.261 284.392 117.839 285.1 117.899 284.93 119.085 284.123 119.822 284.163 119.792 284.123 119.752 282.319 119.633 280.715 120.4 279.917 121.467 279.419 122.503 278.662 123.36 277.536 124.377 274.984 126.22 273.599 126.43 273.101 127.157 274.496 128.313 274.526 130.735 273.111 131.204 272.533 129.579 271.496 128.612 269.931 127.227 269.802 126.779 269.035 126.739 268.636 127.845 269.762 129.689 270.569 131.383 270.519 132.997 269.583 133.446 267.849 135.579 266.952 135.957 266.553 134.642 265.736 134.692 265.925 136.386 265.018 136.436 264.829 138.678 266.623 140.203 266.085 140.831 265.995 141.538 267.3 142.077 267.659 142.924 268.815 142.973 269.035 144 268.815 146.781 268.237 147.498 268.905 148.395 269.393 149.83 270.121 151.046 269.184 152.421 267.659 152.421 267.599 153.358 268.815 153.358 268.815 155.84 268.905 158.56 269.802 159.766 269.353 160.235 269.134 162.417 268.506 162.816 268.227 164.52 270.47 164.64 271.486 165.228 270.45 164.64 268.217 164.52 268.078 165.567 269.025 166.563 270.161 165.796 270.39 165.756 269.941 166.274 269.533 166.812 270.23 167.57 270.938 166.812 271.586 166.563 271.277 167.669 270.579 167.978 270.48 169.513 269.373 169.862 269.134 171.267 268.387 171.417 267.719 172.244 267.689 172.244 267.231 173.031 266.393 174.068 265.676 176.171 265.078 176.579 264.271 176.878 263.224 177.446 263.444 177.337 259.906 177.446 259.706 178.144 258.052 179.798 257.872 182.708 258.769 183.874 258.66 184.921 256.308 184.921C256.308 184.921 255.291 186.127 255.002 186.127 254.703 186.127 255.7 187.024 255.192 187.024 254.703 187.024 256.248 187.572 256.248 187.572L258.65 190.083 262.118 192.585 263.762 193.531 265.207 193.591 266.473 193.531 266.423 194.588 267.779 195.236 268.078 197.299 271.386 197.448 272.234 198.355 274.596 198.694 277.406 198.634 277.536 197.109 278.582 197.02 280.675 198.156 282.698 200.368 285.13 201.016 287.641 201.773 288.06 200.866 291.199 202.89 292.176 202.262 292.176 203.876 292.943 204.076 295.245 205.62 295.993 205.381 298.126 207.095 298.126 208.829 298.863 210.115 300.149 211.391 301.155 211.122 301.982 212.038 302.341 212.955 303.906 212.955 305.919 215.806 305.451 216.892 306.736 217.819 308.112 217.54 309.018 220.3 308.371 221.028 308.65 222.393 309.836 222.204 310.294 222.941 311.939 223.121 313.035 222.393 314.689 223.4 316.433 223.121 317.171 222.294 318.456 222.114 319.642 220.559 320.559 220.938 321.845 221.028 322.313 221.755 322.861 222.493 323.868 222.403 326.25 221.118 327.525 221.307 329.01 221.945 329.09 223.131 330.286 222.772 330.934 223.32 331.94 223.679 334.243 225.513 329.02 234.313 329.927 235.06 330.944 234.502 332.13 234.502 333.226 235.977 333.864 237.163 334.502 237.99 335.419 238.528 337.173 228.253 339.176 216.533 340.093 210.663 340.043 210.613 340.342 209.178 338.239 206.816 338.797 205.63 338.448 204.723 334.472 202.072 334.472 195.933 336.774 195.784 338.369 195.375 338.996 194.478 340.252 195.515 342.215 195.664 342.704 194.688 342.634 193.013 341.508 191.339 336.276 191.259 336.345 185.887 338.169 185.818 339.844 185.818 351.135 186.176 350.368 185.05 351.016 183.595 353.019 185.688 354.155 186.246 354.085 184.572 355.54 184.143 357.573 182.07 358.739 182.19 358.6 184.721 360.294 186.465 360.842 189.445 361.051 191.269 362.805 190.711 362.686 188.768Z" fill="#123871" transform="matrix(1.00561 0 -0 1 260.825 40.9316)"/><path d="M308.291 184.183C315.746 174.965 318.337 185.03 330.745 180.984 329 174.985 325.333 162.427 324.536 159.657 315.187 162.985 313.483 155.142 307.852 162.467L307.852 184.183 308.291 184.183Z" fill="#FFFFFF" transform="matrix(1.00561 0 -0 1 260.825 40.9316)"/><path d="M308.45 184.492 307.533 184.492 307.533 162.338 307.593 162.268C309.417 159.906 310.942 158.899 312.746 158.899 313.663 158.899 314.589 159.168 315.566 159.447 316.782 159.796 318.167 160.185 319.881 160.185 321.327 160.185 322.802 159.916 324.406 159.348L324.745 159.228 331.143 181.183 330.834 181.273C328.711 181.971 326.738 182.31 324.805 182.31 322.273 182.31 320.27 181.722 318.506 181.203 317.121 180.815 315.925 180.476 314.729 180.476 312.596 180.476 310.753 181.642 308.54 184.363L308.45 184.492ZM308.181 162.577 308.181 183.785C310.473 181.014 312.437 179.818 314.739 179.818 316.025 179.818 317.32 180.207 318.695 180.595 320.42 181.094 322.373 181.652 324.815 181.652 326.589 181.652 328.412 181.373 330.356 180.765L324.326 160.085C322.772 160.603 321.307 160.853 319.901 160.853 318.098 160.853 316.662 160.444 315.407 160.085 314.43 159.796 313.583 159.547 312.756 159.547 311.659 159.547 310.264 159.906 308.181 162.577" fill="#123871" transform="matrix(1.00561 0 -0 1 260.825 40.9316)"/><path d="M307.414 184.183 307.852 184.183 307.852 162.467C302.241 155.152 300.547 162.995 291.179 159.657 290.362 162.427 286.714 174.985 284.96 180.984 297.378 185.03 299.979 174.965 307.414 184.183" fill="#FFFFFF" transform="matrix(1.00561 0 -0 1 260.825 40.9316)"/><path d="M308.181 184.492 307.264 184.492 307.165 184.383C304.952 181.652 303.118 180.486 300.976 180.486 299.79 180.486 298.594 180.825 297.209 181.213 295.445 181.732 293.441 182.32 290.92 182.32L290.9 182.32C288.967 182.32 286.993 181.981 284.871 181.283L284.572 181.193 290.97 159.238 291.299 159.358C292.903 159.926 294.408 160.195 295.833 160.195 297.547 160.195 298.933 159.806 300.149 159.457 301.145 159.178 302.072 158.909 302.989 158.909 304.783 158.909 306.318 159.916 308.131 162.278L308.191 162.348 308.191 184.492ZM300.976 179.818C303.278 179.818 305.251 181.004 307.543 183.785L307.543 162.577C305.471 159.906 304.085 159.547 302.979 159.547 302.152 159.547 301.315 159.796 300.338 160.085 299.072 160.444 297.647 160.853 295.833 160.853 294.418 160.853 292.963 160.603 291.408 160.085L285.379 180.765C287.312 181.373 289.126 181.652 290.9 181.652L290.92 181.652C293.362 181.652 295.305 181.094 297.029 180.595 298.395 180.197 299.69 179.818 300.976 179.818" fill="#123871" transform="matrix(1.00561 0 -0 1 260.825 40.9316)"/><path d="M308.291 184.183 331.681 184.183C331.681 184.183 331.323 182.908 330.745 180.984 318.337 185.03 315.746 174.965 308.291 184.183" fill="#FFFFFF" transform="matrix(1.00561 0 -0 1 260.825 40.9316)"/><path d="M332.12 184.492 307.623 184.492 308.052 183.964C310.394 181.064 312.407 179.808 314.749 179.808 316.035 179.808 317.33 180.197 318.705 180.585 320.43 181.094 322.383 181.642 324.825 181.642 326.688 181.642 328.602 181.323 330.655 180.655L330.974 180.546 332.12 184.492ZM308.989 183.844 331.233 183.844 330.515 181.373C328.522 182.021 326.648 182.33 324.815 182.33 322.283 182.33 320.28 181.742 318.516 181.223 317.131 180.835 315.935 180.496 314.739 180.496 312.766 180.496 311.012 181.502 308.989 183.844" fill="#123871" transform="matrix(1.00561 0 -0 1 260.825 40.9316)"/><path d="M307.414 184.183C299.979 174.965 297.378 185.03 284.97 180.984 284.402 182.918 284.043 184.183 284.043 184.183L307.414 184.183Z" fill="#FFFFFF" transform="matrix(1.00561 0 -0 1 260.825 40.9316)"/><path d="M308.112 184.492 283.595 184.492 284.751 180.546 285.07 180.655C287.133 181.323 289.036 181.642 290.9 181.642 293.352 181.642 295.305 181.084 297.029 180.585 298.395 180.187 299.69 179.808 300.976 179.808 303.328 179.808 305.331 181.064 307.683 183.964L308.112 184.492ZM284.482 183.844 306.726 183.844C304.713 181.502 302.969 180.486 300.976 180.486 299.79 180.486 298.594 180.825 297.209 181.213 295.445 181.732 293.431 182.32 290.9 182.32 289.066 182.32 287.193 182.011 285.19 181.373L284.482 183.844Z" fill="#123871" transform="matrix(1.00561 0 -0 1 260.825 40.9316)"/><path d="M304.015 186.107 307.852 182.24 311.709 186.107Z" fill="#FFFFFF" transform="matrix(1.00561 0 -0 1 260.825 40.9316)"/><path d="M312.497 186.426 303.208 186.426 307.852 181.771 312.497 186.426ZM304.803 185.768 310.922 185.768 307.862 182.718 304.803 185.768Z" fill="#123871" transform="matrix(1.00561 0 -0 1 260.825 40.9316)"/><path d="M317.559 144.269 298.594 144.269 298.594 126.201 296.352 126.201 296.352 144.269 277.356 144.269 277.356 146.511 296.352 146.511 296.352 193.482 298.594 193.482 298.594 146.511 317.559 146.511Z" fill="#FFFFFF" transform="matrix(1.00561 0 -0 1 260.825 40.9316)"/><path d="M298.753 193.651 296.182 193.651 296.182 146.671 277.207 146.671 277.207 144.11 296.182 144.11 296.182 126.041 298.753 126.041 298.753 144.11 317.739 144.11 317.739 146.671 298.753 146.671 298.753 193.651ZM296.511 193.322 298.424 193.322 298.424 146.342 317.41 146.342 317.41 144.429 298.424 144.429 298.424 126.34 296.511 126.34 296.511 144.429 277.526 144.429 277.526 146.342 296.511 146.342 296.511 193.322Z" fill="#123871" transform="matrix(1.00561 0 -0 1 260.825 40.9316)"/></g></g></g></svg>