<svg width="296" height="253" xmlns="http://www.w3.org/2000/svg" xmlns:xlink="http://www.w3.org/1999/xlink" overflow="hidden"><defs><clipPath id="clip0"><path d="M425 119 721 119 721 372 425 372Z" fill-rule="evenodd" clip-rule="evenodd"/></clipPath><clipPath id="clip1"><path d="M426 120 721 120 721 371 426 371Z" fill-rule="evenodd" clip-rule="evenodd"/></clipPath><clipPath id="clip2"><path d="M426 120 721 120 721 371 426 371Z" fill-rule="evenodd" clip-rule="evenodd"/></clipPath></defs><g clip-path="url(#clip0)" transform="translate(-425 -119)"><g clip-path="url(#clip1)"><g clip-path="url(#clip2)"><path d="M187.226 260.968C198.889 260.968 204.894 266.317 205.004 275.201L194.755 276.456C194.646 271.606 192.245 269.972 187.236 269.972 179.387 269.972 178.182 276.237 178.182 283.109 178.182 289.981 179.377 296.246 187.236 296.246 192.255 296.246 194.656 294.613 194.755 289.762L205.004 291.017C204.894 299.901 198.898 305.25 187.226 305.25 173.212 305.25 167.983 296.366 167.983 283.119 167.983 269.863 173.212 260.968 187.226 260.968" fill="#1A3971" transform="matrix(1.00346 0 -0 1 262.188 40.981)"/><path d="M208.54 283.109C208.54 269.863 214.267 260.968 228.609 260.968 242.891 260.968 248.668 269.853 248.668 283.109 248.668 296.356 242.941 305.24 228.609 305.24 214.316 305.24 208.54 296.356 208.54 283.109M218.729 283.109C218.729 289.981 220.531 296.246 228.599 296.246 236.666 296.246 238.469 289.981 238.469 283.109 238.469 276.237 236.666 269.972 228.599 269.972 220.531 269.972 218.729 276.237 218.729 283.109" fill="#1A3971" transform="matrix(1.00346 0 -0 1 262.188 40.981)"/><path d="M276.018 280.599 279.942 286.545 279.892 278.637 279.892 261.845 289.981 261.845 289.981 304.373 280.659 304.373 267.731 285.619 263.807 279.673 263.867 287.581 263.867 304.373 253.777 304.373 253.777 261.845 263.1 261.845Z" fill="#1A3971" transform="matrix(1.00346 0 -0 1 262.188 40.981)"/><path d="M316.953 260.968 333.476 304.364 322.68 304.364 319.572 295.479 305.668 295.479 302.611 304.364 291.824 304.364 308.347 260.968 316.953 260.968ZM308.557 287.302 316.734 287.302 312.64 275.52 308.557 287.302Z" fill="#1A3971" transform="matrix(1.00346 0 -0 1 262.188 40.981)"/><path d="M353.964 260.968C365.637 260.968 371.632 266.317 371.742 275.201L361.493 276.456C361.384 271.606 358.983 269.972 353.974 269.972 346.125 269.972 344.92 276.237 344.92 283.109 344.92 289.981 346.115 296.246 353.974 296.246 358.993 296.246 361.394 294.613 361.493 289.762L371.742 291.017C371.632 299.901 365.637 305.25 353.964 305.25 339.95 305.25 334.721 296.366 334.721 283.119 334.711 269.863 339.95 260.968 353.964 260.968" fill="#1A3971" transform="matrix(1.00346 0 -0 1 262.188 40.981)"/><path d="M406.671 261.845 406.671 270.839 385.905 270.839 385.905 278.149 403.733 278.149 403.733 287.143 385.905 287.143 385.905 295.37 407.767 295.37 407.767 304.373 375.816 304.373 375.816 261.845Z" fill="#1A3971" transform="matrix(1.00346 0 -0 1 262.188 40.981)"/><path d="M412.229 304.373 412.229 261.845 428.204 261.845C441.999 261.845 448.811 268.438 448.811 283.109 448.811 297.77 441.999 304.373 428.204 304.373L412.229 304.373ZM428.204 295.37C436.162 295.37 438.613 290.629 438.613 283.099 438.613 275.57 436.162 270.829 428.204 270.829L422.318 270.829 422.318 295.36 428.204 295.36Z" fill="#1A3971" transform="matrix(1.00346 0 -0 1 262.188 40.981)"/><path d="M170.005 313.776C172.126 313.776 173.212 314.742 173.232 316.355L171.369 316.584C171.35 315.698 170.911 315.399 170.005 315.399 168.581 315.399 168.362 316.544 168.362 317.789 168.362 319.034 168.581 320.18 170.005 320.18 170.911 320.18 171.35 319.881 171.369 319.005L173.232 319.234C173.212 320.847 172.126 321.813 170.005 321.813 167.455 321.813 166.509 320.2 166.509 317.799 166.509 315.389 167.455 313.776 170.005 313.776" fill="#1A3971" transform="matrix(1.00346 0 -0 1 262.188 40.981)"/><path d="M173.879 317.799C173.879 315.389 174.915 313.776 177.525 313.776 180.124 313.776 181.17 315.389 181.17 317.799 181.17 320.2 180.134 321.823 177.525 321.823 174.935 321.823 173.879 320.2 173.879 317.799M175.732 317.799C175.732 319.044 176.061 320.19 177.525 320.19 178.989 320.19 179.317 319.054 179.317 317.799 179.317 316.544 178.989 315.409 177.525 315.409 176.061 315.409 175.732 316.554 175.732 317.799" fill="#1A3971" transform="matrix(1.00346 0 -0 1 262.188 40.981)"/><path d="M186.15 317.341 186.867 318.427 186.857 316.993 186.857 313.935 188.69 313.935 188.69 321.664 186.996 321.664 184.646 318.258 183.939 317.172 183.949 318.606 183.949 321.664 182.116 321.664 182.116 313.935 183.809 313.935Z" fill="#1A3971" transform="matrix(1.00346 0 -0 1 262.188 40.981)"/><path d="M191.558 321.664 189.725 321.664 189.725 313.935 195.313 313.935 195.313 315.568 191.558 315.568 191.558 316.903 194.775 316.903 194.775 318.536 191.558 318.536Z" fill="#1A3971" transform="matrix(1.00346 0 -0 1 262.188 40.981)"/><path d="M201.578 313.935 201.578 315.568 197.803 315.568 197.803 316.903 201.05 316.903 201.05 318.536 197.803 318.536 197.803 320.03 201.777 320.03 201.777 321.664 195.97 321.664 195.97 313.935Z" fill="#1A3971" transform="matrix(1.00346 0 -0 1 262.188 40.981)"/><path d="M202.594 321.664 202.594 313.935 205.492 313.935C207.992 313.935 209.237 315.13 209.237 317.799 209.237 320.459 208.002 321.664 205.492 321.664L202.594 321.664ZM205.502 320.03C206.946 320.03 207.394 319.164 207.394 317.799 207.394 316.435 206.946 315.568 205.502 315.568L204.426 315.568 204.426 320.03 205.502 320.03Z" fill="#1A3971" transform="matrix(1.00346 0 -0 1 262.188 40.981)"/><path d="M215.771 313.935 215.771 315.568 211.996 315.568 211.996 316.903 215.233 316.903 215.233 318.536 211.996 318.536 211.996 320.03 215.97 320.03 215.97 321.664 210.163 321.664 210.163 313.935Z" fill="#1A3971" transform="matrix(1.00346 0 -0 1 262.188 40.981)"/><path d="M218.619 321.664 216.786 321.664 216.786 313.935 220.203 313.935C221.597 313.935 223.111 314.333 223.111 316.465 223.111 317.819 222.513 318.477 221.727 318.775L223.489 321.664 221.288 321.664 219.784 319.005 218.619 319.005 218.619 321.664ZM220.342 317.351C220.731 317.351 221.258 317.281 221.258 316.465 221.258 315.648 220.731 315.568 220.342 315.568L218.619 315.568 218.619 317.351 220.342 317.351Z" fill="#1A3971" transform="matrix(1.00346 0 -0 1 262.188 40.981)"/><path d="M227.842 313.776 230.84 321.654 228.878 321.654 228.31 320.04 225.78 320.04 225.222 321.654 223.26 321.654 226.258 313.776 227.842 313.776ZM226.318 318.566 227.802 318.566 227.055 316.425 226.318 318.566Z" fill="#1A3971" transform="matrix(1.00346 0 -0 1 262.188 40.981)"/><path d="M234.575 313.776C236.696 313.776 237.782 314.742 237.802 316.355L235.939 316.584C235.919 315.698 235.481 315.399 234.575 315.399 233.15 315.399 232.931 316.544 232.931 317.789 232.931 319.034 233.15 320.18 234.575 320.18 235.481 320.18 235.919 319.881 235.939 319.005L237.802 319.234C237.782 320.847 236.696 321.813 234.575 321.813 232.025 321.813 231.079 320.2 231.079 317.799 231.079 315.389 232.035 313.776 234.575 313.776" fill="#1A3971" transform="matrix(1.00346 0 -0 1 262.188 40.981)"/><path d="M238.668 313.935 240.501 313.935 240.501 321.664 238.668 321.664Z" fill="#1A3971" transform="matrix(1.00346 0 -0 1 262.188 40.981)"/><path d="M241.547 317.799C241.547 315.389 242.582 313.776 245.192 313.776 247.782 313.776 248.837 315.389 248.837 317.799 248.837 320.2 247.801 321.823 245.192 321.823 242.592 321.823 241.547 320.2 241.547 317.799M243.399 317.799C243.399 319.044 243.728 320.19 245.192 320.19 246.656 320.19 246.985 319.054 246.985 317.799 246.985 316.554 246.656 315.409 245.192 315.409 243.728 315.409 243.399 316.554 243.399 317.799M247.134 311.465 246.039 313.527 244.266 313.527 245.192 311.465 247.134 311.465Z" fill="#1A3971" transform="matrix(1.00346 0 -0 1 262.188 40.981)"/><path d="M253.817 317.341 254.524 318.427 254.514 316.993 254.514 313.935 256.347 313.935 256.347 321.664 254.654 321.664 252.313 318.258 251.596 317.172 251.606 318.606 251.606 321.664 249.773 321.664 249.773 313.935 251.467 313.935Z" fill="#1A3971" transform="matrix(1.00346 0 -0 1 262.188 40.981)"/><path d="M263.608 317.341 264.325 318.427 264.315 316.993 264.315 313.935 266.148 313.935 266.148 321.664 264.454 321.664 262.104 318.258 261.387 317.172 261.397 318.606 261.397 321.664 259.564 321.664 259.564 313.935 261.257 313.935Z" fill="#1A3971" transform="matrix(1.00346 0 -0 1 262.188 40.981)"/><path d="M271.058 313.776 274.056 321.654 272.094 321.654 271.526 320.04 268.996 320.04 268.438 321.654 266.476 321.654 269.474 313.776 271.058 313.776ZM269.534 318.566 271.018 318.566 270.271 316.425 269.534 318.566Z" fill="#1A3971" transform="matrix(1.00346 0 -0 1 262.188 40.981)"/><path d="M277.791 313.776C279.912 313.776 280.998 314.742 281.018 316.355L279.155 316.584C279.135 315.698 278.697 315.399 277.791 315.399 276.366 315.399 276.147 316.544 276.147 317.789 276.147 319.034 276.366 320.18 277.791 320.18 278.707 320.18 279.135 319.881 279.155 319.005L281.018 319.234C280.998 320.847 279.912 321.813 277.791 321.813 275.241 321.813 274.295 320.2 274.295 317.799 274.295 315.389 275.241 313.776 277.791 313.776" fill="#1A3971" transform="matrix(1.00346 0 -0 1 262.188 40.981)"/><path d="M281.874 313.935 283.707 313.935 283.707 321.664 281.874 321.664Z" fill="#1A3971" transform="matrix(1.00346 0 -0 1 262.188 40.981)"/><path d="M284.753 317.799C284.753 315.389 285.788 313.776 288.398 313.776 290.997 313.776 292.043 315.389 292.043 317.799 292.043 320.2 291.007 321.823 288.398 321.823 285.798 321.823 284.753 320.2 284.753 317.799M286.605 317.799C286.605 319.044 286.934 320.19 288.398 320.19 289.862 320.19 290.191 319.054 290.191 317.799 290.191 316.544 289.862 315.409 288.398 315.409 286.934 315.409 286.605 316.554 286.605 317.799" fill="#1A3971" transform="matrix(1.00346 0 -0 1 262.188 40.981)"/><path d="M297.023 317.341 297.74 318.427 297.73 316.993 297.73 313.935 299.563 313.935 299.563 321.664 297.86 321.664 295.519 318.258 294.802 317.172 294.812 318.606 294.812 321.664 292.979 321.664 292.979 313.935 294.673 313.935Z" fill="#1A3971" transform="matrix(1.00346 0 -0 1 262.188 40.981)"/><path d="M304.473 313.776 307.471 321.654 305.509 321.654 304.941 320.04 302.421 320.04 301.864 321.654 299.901 321.654 302.899 313.776 304.473 313.776ZM302.939 318.566 304.423 318.566 303.676 316.425 302.939 318.566Z" fill="#1A3971" transform="matrix(1.00346 0 -0 1 262.188 40.981)"/><path d="M309.652 320.03 313.168 320.03 313.168 321.664 307.82 321.664 307.82 313.935 309.652 313.935Z" fill="#1A3971" transform="matrix(1.00346 0 -0 1 262.188 40.981)"/><path d="M319.333 313.776C321.455 313.776 322.54 314.742 322.56 316.355L320.698 316.584C320.678 315.698 320.24 315.399 319.333 315.399 317.909 315.399 317.69 316.544 317.69 317.789 317.69 319.034 317.909 320.18 319.333 320.18 320.24 320.18 320.678 319.881 320.698 319.005L322.56 319.234C322.54 320.847 321.455 321.813 319.333 321.813 316.783 321.813 315.837 320.2 315.837 317.799 315.837 315.389 316.783 313.776 319.333 313.776" fill="#1A3971" transform="matrix(1.00346 0 -0 1 262.188 40.981)"/><path d="M327.182 313.776 330.18 321.654 328.217 321.654 327.65 320.04 325.12 320.04 324.562 321.654 322.6 321.654 325.598 313.776 327.182 313.776ZM325.658 318.566 327.142 318.566 326.395 316.425 325.658 318.566Z" fill="#1A3971" transform="matrix(1.00346 0 -0 1 262.188 40.981)"/><path d="M333.446 321.664 331.614 321.664 331.614 315.568 329.492 315.568 329.492 313.935 335.558 313.935 335.558 315.568 333.446 315.568Z" fill="#1A3971" transform="matrix(1.00346 0 -0 1 262.188 40.981)"/><path d="M335.757 317.799C335.757 315.389 336.803 313.776 339.402 313.776 341.992 313.776 343.048 315.389 343.048 317.799 343.048 320.2 342.012 321.823 339.402 321.823 336.803 321.823 335.757 320.2 335.757 317.799M337.61 317.799C337.61 319.044 337.938 320.19 339.402 320.19 340.866 320.19 341.195 319.054 341.195 317.799 341.195 316.554 340.866 315.409 339.402 315.409 337.938 315.409 337.61 316.554 337.61 317.799M341.345 311.465 340.249 313.527 338.476 313.527 339.402 311.465 341.345 311.465Z" fill="#1A3971" transform="matrix(1.00346 0 -0 1 262.188 40.981)"/><path d="M345.816 320.03 349.332 320.03 349.332 321.664 343.984 321.664 343.984 313.935 345.816 313.935Z" fill="#1A3971" transform="matrix(1.00346 0 -0 1 262.188 40.981)"/><path d="M350.039 313.935 351.872 313.935 351.872 321.664 350.039 321.664Z" fill="#1A3971" transform="matrix(1.00346 0 -0 1 262.188 40.981)"/><path d="M356.404 313.776C358.525 313.776 359.611 314.742 359.631 316.355L357.768 316.584C357.748 315.698 357.31 315.399 356.404 315.399 354.98 315.399 354.76 316.544 354.76 317.789 354.76 319.034 354.98 320.18 356.404 320.18 357.31 320.18 357.748 319.881 357.768 319.005L359.631 319.234C359.611 320.847 358.525 321.813 356.404 321.813 353.854 321.813 352.908 320.2 352.908 317.799 352.908 315.389 353.854 313.776 356.404 313.776" fill="#1A3971" transform="matrix(1.00346 0 -0 1 262.188 40.981)"/><path d="M364.252 313.776 367.25 321.654 365.288 321.654 364.72 320.04 362.19 320.04 361.633 321.654 359.671 321.654 362.669 313.776 364.252 313.776ZM362.728 318.566 364.212 318.566 363.465 316.425 362.728 318.566Z" fill="#1A3971" transform="matrix(1.00346 0 -0 1 262.188 40.981)"/><path d="M369.78 321.664 369.78 313.935 372.678 313.935C375.178 313.935 376.423 315.13 376.423 317.799 376.423 320.459 375.188 321.664 372.678 321.664L369.78 321.664ZM372.688 320.03C374.132 320.03 374.581 319.164 374.581 317.799 374.581 316.435 374.132 315.568 372.688 315.568L371.613 315.568 371.613 320.03 372.688 320.03Z" fill="#1A3971" transform="matrix(1.00346 0 -0 1 262.188 40.981)"/><path d="M382.957 313.935 382.957 315.568 379.182 315.568 379.182 316.903 382.419 316.903 382.419 318.536 379.182 318.536 379.182 320.03 383.156 320.03 383.156 321.664 377.349 321.664 377.349 313.935Z" fill="#1A3971" transform="matrix(1.00346 0 -0 1 262.188 40.981)"/><path d="M391.761 313.935 391.761 315.568 387.987 315.568 387.987 316.903 391.223 316.903 391.223 318.536 387.987 318.536 387.987 320.03 391.961 320.03 391.961 321.664 386.154 321.664 386.154 313.935Z" fill="#1A3971" transform="matrix(1.00346 0 -0 1 262.188 40.981)"/><path d="M392.777 321.664 392.777 313.935 395.676 313.935C398.175 313.935 399.42 315.13 399.42 317.799 399.42 320.459 398.185 321.664 395.676 321.664L392.777 321.664ZM395.676 320.03C397.12 320.03 397.568 319.164 397.568 317.799 397.568 316.435 397.12 315.568 395.676 315.568L394.6 315.568 394.6 320.03 395.676 320.03Z" fill="#1A3971" transform="matrix(1.00346 0 -0 1 262.188 40.981)"/><path d="M404.968 318.785 404.968 313.945 406.801 313.945 406.801 318.825C406.801 320.538 406.094 321.823 403.524 321.823 400.944 321.823 400.247 320.538 400.247 318.825L400.247 313.945 402.08 313.945 402.08 318.785C402.08 319.562 402.229 320.2 403.524 320.2 404.819 320.2 404.968 319.552 404.968 318.785" fill="#1A3971" transform="matrix(1.00346 0 -0 1 262.188 40.981)"/><path d="M411.123 313.776C413.245 313.776 414.33 314.742 414.35 316.355L412.488 316.584C412.468 315.698 412.03 315.399 411.123 315.399 409.699 315.399 409.48 316.544 409.48 317.789 409.48 319.034 409.699 320.18 411.123 320.18 412.03 320.18 412.468 319.881 412.488 319.005L414.35 319.234C414.33 320.847 413.245 321.813 411.123 321.813 408.574 321.813 407.627 320.2 407.627 317.799 407.627 315.389 408.584 313.776 411.123 313.776" fill="#1A3971" transform="matrix(1.00346 0 -0 1 262.188 40.981)"/><path d="M418.972 313.776 421.97 321.654 420.008 321.654 419.44 320.04 416.91 320.04 416.352 321.654 414.39 321.654 417.388 313.776 418.972 313.776ZM417.448 318.566 418.932 318.566 418.185 316.425 417.448 318.566Z" fill="#1A3971" transform="matrix(1.00346 0 -0 1 262.188 40.981)"/><path d="M425.715 313.776C427.836 313.776 428.922 314.742 428.942 316.355L427.079 316.584C427.059 315.698 426.631 315.399 425.715 315.399 424.29 315.399 424.071 316.544 424.071 317.789 424.071 319.034 424.29 320.18 425.715 320.18 426.631 320.18 427.059 319.881 427.079 319.005L428.942 319.234C428.922 320.847 427.836 321.813 425.715 321.813 423.165 321.813 422.219 320.2 422.219 317.799 422.219 315.389 423.165 313.776 425.715 313.776" fill="#1A3971" transform="matrix(1.00346 0 -0 1 262.188 40.981)"/><path d="M429.798 313.935 431.631 313.935 431.631 321.664 429.798 321.664Z" fill="#1A3971" transform="matrix(1.00346 0 -0 1 262.188 40.981)"/><path d="M432.676 317.799C432.676 315.389 433.722 313.776 436.322 313.776 438.921 313.776 439.967 315.389 439.967 317.799 439.967 320.2 438.931 321.823 436.322 321.823 433.722 321.823 432.676 320.2 432.676 317.799M434.529 317.799C434.529 319.044 434.858 320.19 436.322 320.19 437.786 320.19 438.115 319.054 438.115 317.799 438.115 316.554 437.786 315.409 436.322 315.409 434.848 315.409 434.529 316.554 434.529 317.799M438.264 311.465 437.168 313.527 435.396 313.527 436.322 311.465 438.264 311.465Z" fill="#1A3971" transform="matrix(1.00346 0 -0 1 262.188 40.981)"/><path d="M444.947 317.341 445.654 318.427 445.654 316.993 445.654 313.935 447.487 313.935 447.487 321.664 445.784 321.664 443.443 318.258 442.726 317.172 442.736 318.606 442.736 321.664 440.903 321.664 440.903 313.935 442.596 313.935Z" fill="#1A3971" transform="matrix(1.00346 0 -0 1 262.188 40.981)"/><path d="M166.051 309.055 450.136 309.055 450.136 309.403 166.051 309.403Z" fill="#1A3971" fill-rule="evenodd" transform="matrix(1.00346 0 -0 1 262.188 40.981)"/><path d="M390.646 166.131C390.646 211.398 353.964 248.1 308.686 248.1 263.419 248.1 226.736 211.398 226.736 166.131 226.736 120.853 263.419 84.1708 308.686 84.1708 353.964 84.1708 390.646 120.853 390.646 166.131" fill="#FFFFFF" transform="matrix(1.00346 0 -0 1 262.188 40.981)"/><path d="M308.686 250.052C262.413 250.052 224.764 212.404 224.764 166.131 224.764 119.847 262.413 82.2087 308.686 82.2087 354.97 82.2087 392.618 119.847 392.618 166.131 392.618 212.404 354.96 250.052 308.686 250.052M308.686 86.1329C264.574 86.1329 228.688 122.008 228.688 166.131 228.688 210.243 264.564 246.128 308.686 246.128 352.808 246.128 388.704 210.253 388.704 166.131 388.694 122.008 352.808 86.1329 308.686 86.1329" fill="#123871" transform="matrix(1.00346 0 -0 1 262.188 40.981)"/><path d="M274.992 147.486 278.886 147.396 274.992 147.486Z" fill="#123871" transform="matrix(1.00346 0 -0 1 262.188 40.981)"/><path d="M276.287 140.354 273.747 140.334 276.287 140.354Z" fill="#123871" transform="matrix(1.00346 0 -0 1 262.188 40.981)"/><path d="M280.151 191.399 280.151 191.399C280.121 191.279 280.051 190.951 280.042 190.891 280.071 190.97 280.131 191.279 280.151 191.399" fill="#123871" transform="matrix(1.00346 0 -0 1 262.188 40.981)"/><path d="M272.611 165.075 273.966 165.931 272.621 165.075Z" fill="#123871" transform="matrix(1.00346 0 -0 1 262.188 40.981)"/><path d="M282.522 160.453 283.049 160.951 280.898 158.93Z" fill="#123871" transform="matrix(1.00346 0 -0 1 262.188 40.981)"/><path d="M291.854 130.205 291.874 130.205 291.864 130.255 291.924 129.966 291.874 130.205Z" fill="#123871" transform="matrix(1.00346 0 -0 1 262.188 40.981)"/><path d="M294.444 164.876 294.453 165.045 294.493 164.985 293.926 163.83Z" fill="#123871" transform="matrix(1.00346 0 -0 1 262.188 40.981)"/><path d="M362.459 188.65 361.135 184.676 360.647 182.445 359.531 181.469 359.671 179.945 357.39 177.923 356.693 177.853 356.334 176.877 353.565 176.25 357.738 172.764 358.914 172.007 358.645 170.752 357.041 167.963 356.065 168.162 355.448 165.722 354.521 164.258 354.731 162.107 353.695 161.2 354.382 158.143 354.043 154.946 355.766 153.691 356.404 153.053 355.766 151.938 356.185 150.334 357.778 148.87 357.161 147.336 356.533 146.569 354.671 146.091 352.918 147.137 352.151 146.868 346.295 147.267 343.157 146.868 341.066 148.183 340.09 147.755 339.253 147.416 333.556 140.653 332.699 140.374 332.221 140.932 331.454 140.932C332.221 140.932 329.014 139.757 329.014 139.757L327.062 139.677 325.668 140.653 316.644 140.225 315.369 137.864 315.329 137.028 313.168 136.978 312.471 134.867 312.421 132.486 313.457 132.028 313.357 128.662 310.917 126.291 309.692 122.387 308.567 122.148 307.78 120.963 306.744 120.873 306.525 121.212 306.555 120.176 306.604 119.986 306.824 119.598 307.212 119.568 307.242 118.921 308.308 117.367 308.457 116.919 307.919 116.969 308.308 116.421 308.457 115.963 307.919 116.022 307.909 115.913 308.258 115.305 308.646 115.266 308.706 113.493 308.766 113.264 308.676 113.403 308.686 112.945 308.726 112.457 308.766 112.307 313.208 105.355 314.533 105.057 316.983 100.634 318.995 100.505 322.092 99.1405 324.532 97.3378 323.058 94.8876 321.156 94.0211 319.343 93.9614 317.082 95.1765 317.52 96.1725 316.744 96.4115 316.345 95.4852 315.031 95.4852 315.031 97.4971 313.556 99.0011 312.292 99.4492 309.802 100.136 305.18 103.871 302.571 104.011 300.3 103.871 299.075 103.124 297.551 103.075 296.814 103.871 296.904 105.903 296.177 106.302 294.702 106.361 292.452 105.485 291.475 105.485 291.226 105.336 289.125 107.527 287.9 108.075 287.86 109.449 287.89 108.284C287.541 108.473 285.649 109.539 285.649 109.539L285.599 114.379 284.533 115.634 284.444 116.52 283.866 117.188 284.215 117.765 284.922 117.825 284.753 119.01 283.946 119.747 283.986 119.718 283.946 119.678 282.143 119.558 280.54 120.325 279.743 121.391 279.245 122.427 278.488 123.283 277.362 124.299 274.813 126.142 273.428 126.351 272.93 127.078 274.325 128.233 274.354 130.654 272.94 131.122 272.362 129.498 271.327 128.532 269.763 127.148 269.633 126.699 268.867 126.66 268.468 127.765 269.594 129.608 270.4 131.301 270.351 132.914 269.414 133.363 267.681 135.494 266.785 135.872 266.387 134.558 265.57 134.608 265.759 136.301 264.853 136.351 264.664 138.592 266.456 140.115 265.918 140.743 265.829 141.45 267.134 141.988 267.492 142.834 268.647 142.884 268.867 143.91 268.647 146.689 268.07 147.406 268.737 148.302 269.225 149.737 269.952 150.952 269.016 152.326 267.492 152.326 267.432 153.262 268.647 153.262 268.647 155.742 268.737 158.461 269.633 159.667 269.185 160.135 268.966 162.316 268.339 162.714 268.06 164.417 270.301 164.537 271.317 165.125 270.281 164.537 268.05 164.417 267.91 165.463 268.857 166.459 269.992 165.692 270.221 165.652 269.773 166.17 269.365 166.708 270.062 167.465 270.769 166.708 271.416 166.459 271.108 167.565 270.41 167.874 270.311 169.407 269.205 169.756 268.966 171.16 268.219 171.31 267.552 172.136 267.522 172.136 267.064 172.923 266.227 173.959 265.51 176.061 264.913 176.469 264.106 176.768 263.06 177.335 263.279 177.226 259.743 177.335 259.544 178.033 257.891 179.686 257.712 182.594 258.608 183.76 258.498 184.805 256.148 184.805C256.148 184.805 255.132 186.01 254.843 186.01 254.544 186.01 255.54 186.907 255.032 186.907 254.544 186.907 256.088 187.455 256.088 187.455L258.488 189.965 261.954 192.464 263.598 193.411 265.042 193.47 266.307 193.411 266.257 194.466 267.612 195.114 267.91 197.175 271.217 197.325 272.064 198.231 274.424 198.57 277.233 198.51 277.362 196.986 278.408 196.897 280.5 198.032 282.522 200.243 284.952 200.89 287.462 201.647 287.88 200.741 291.017 202.763 291.993 202.135 291.993 203.749 292.76 203.948 295.061 205.492 295.808 205.253 297.939 206.966 297.939 208.699 298.676 209.984 299.961 211.259 300.967 210.99 301.794 211.906 302.152 212.822 303.716 212.822 305.728 215.671 305.26 216.757 306.545 217.683 307.919 217.404 308.826 220.163 308.178 220.89 308.457 222.254 309.642 222.065 310.1 222.802 311.744 222.981 312.839 222.254 314.493 223.26 316.236 222.981 316.973 222.155 318.258 221.976 319.443 220.422 320.359 220.8 321.644 220.89 322.112 221.617 322.66 222.354 323.666 222.264 326.046 220.98 327.321 221.169 328.805 221.806 328.885 222.991 330.08 222.633 330.727 223.181 331.733 223.539 334.034 225.372 328.815 234.166 329.721 234.913 330.737 234.356 331.922 234.356 333.018 235.83 333.655 237.015 334.293 237.842 335.209 238.379 336.962 228.111 338.964 216.398 339.88 210.532 339.831 210.482 340.129 209.048 338.028 206.687 338.586 205.502 338.237 204.596 334.263 201.946 334.263 195.811 336.564 195.662 338.157 195.253 338.785 194.357 340.04 195.393 342.002 195.542 342.49 194.566 342.42 192.893 341.295 191.219 336.066 191.14 336.135 185.771 337.958 185.702 339.631 185.702 350.916 186.06 350.149 184.935 350.796 183.481 352.798 185.572 353.934 186.13 353.864 184.457 355.318 184.028 357.35 181.957 358.515 182.076 358.376 184.606 360.069 186.349 360.617 189.327 360.826 191.15 362.579 190.592 362.459 188.65Z" fill="#123871" transform="matrix(1.00346 0 -0 1 262.188 40.981)"/><path d="M308.098 184.068C315.548 174.855 318.138 184.915 330.538 180.871 328.795 174.875 325.13 162.326 324.333 159.557 314.991 162.884 313.288 155.045 307.66 162.366L307.66 184.068 308.098 184.068Z" fill="#FFFFFF" transform="matrix(1.00346 0 -0 1 262.188 40.981)"/><path d="M308.258 184.377 307.342 184.377 307.342 162.236 307.401 162.167C309.224 159.806 310.748 158.8 312.551 158.8 313.467 158.8 314.393 159.069 315.369 159.348 316.584 159.696 317.969 160.085 319.682 160.085 321.126 160.085 322.6 159.816 324.204 159.248L324.542 159.129 330.936 181.07 330.628 181.16C328.506 181.857 326.534 182.196 324.602 182.196 322.072 182.196 320.07 181.608 318.307 181.09 316.923 180.702 315.728 180.363 314.533 180.363 312.401 180.363 310.559 181.529 308.347 184.248L308.258 184.377ZM307.989 162.475 307.989 183.67C310.28 180.901 312.242 179.706 314.543 179.706 315.827 179.706 317.122 180.094 318.497 180.483 320.22 180.981 322.172 181.538 324.612 181.538 326.385 181.538 328.207 181.26 330.15 180.652L324.124 159.985C322.57 160.503 321.106 160.752 319.702 160.752 317.899 160.752 316.465 160.344 315.21 159.985 314.234 159.696 313.387 159.447 312.56 159.447 311.465 159.447 310.071 159.806 307.989 162.475" fill="#123871" transform="matrix(1.00346 0 -0 1 262.188 40.981)"/><path d="M307.222 184.068 307.66 184.068 307.66 162.366C302.053 155.055 300.36 162.894 290.997 159.557 290.181 162.326 286.535 174.875 284.782 180.871 297.192 184.915 299.792 174.855 307.222 184.068" fill="#FFFFFF" transform="matrix(1.00346 0 -0 1 262.188 40.981)"/><path d="M307.989 184.377 307.073 184.377 306.973 184.267C304.762 181.538 302.929 180.373 300.788 180.373 299.603 180.373 298.408 180.712 297.023 181.1 295.26 181.618 293.258 182.206 290.738 182.206L290.719 182.206C288.786 182.206 286.814 181.867 284.693 181.17L284.394 181.08 290.788 159.139 291.117 159.258C292.72 159.826 294.224 160.095 295.649 160.095 297.362 160.095 298.746 159.706 299.961 159.358 300.957 159.079 301.884 158.81 302.8 158.81 304.593 158.81 306.126 159.816 307.939 162.176L307.999 162.246 307.999 184.377ZM300.788 179.706C303.089 179.706 305.061 180.891 307.351 183.67L307.351 162.475C305.28 159.806 303.895 159.447 302.79 159.447 301.963 159.447 301.127 159.696 300.15 159.985 298.886 160.344 297.461 160.752 295.649 160.752 294.234 160.752 292.78 160.503 291.226 159.985L285.201 180.652C287.133 181.26 288.946 181.538 290.719 181.538L290.738 181.538C293.179 181.538 295.121 180.981 296.844 180.483 298.208 180.084 299.503 179.706 300.788 179.706" fill="#123871" transform="matrix(1.00346 0 -0 1 262.188 40.981)"/><path d="M308.098 184.068 331.474 184.068C331.474 184.068 331.116 182.793 330.538 180.871 318.138 184.915 315.548 174.855 308.098 184.068" fill="#FFFFFF" transform="matrix(1.00346 0 -0 1 262.188 40.981)"/><path d="M331.913 184.377 307.431 184.377 307.859 183.849C310.2 180.951 312.212 179.696 314.552 179.696 315.837 179.696 317.132 180.084 318.507 180.473 320.23 180.981 322.182 181.529 324.622 181.529 326.484 181.529 328.397 181.21 330.448 180.542L330.767 180.433 331.913 184.377ZM308.796 183.73 331.026 183.73 330.309 181.26C328.317 181.907 326.445 182.216 324.612 182.216 322.082 182.216 320.08 181.628 318.317 181.11 316.933 180.722 315.738 180.383 314.543 180.383 312.57 180.383 310.818 181.389 308.796 183.73" fill="#123871" transform="matrix(1.00346 0 -0 1 262.188 40.981)"/><path d="M307.222 184.068C299.792 174.855 297.192 184.915 284.792 180.871 284.225 182.803 283.866 184.068 283.866 184.068L307.222 184.068Z" fill="#FFFFFF" transform="matrix(1.00346 0 -0 1 262.188 40.981)"/><path d="M307.919 184.377 283.418 184.377 284.573 180.433 284.892 180.542C286.954 181.21 288.856 181.529 290.719 181.529 293.169 181.529 295.121 180.971 296.844 180.473 298.208 180.074 299.503 179.696 300.788 179.696 303.138 179.696 305.14 180.951 307.491 183.849L307.919 184.377ZM284.304 183.73 306.535 183.73C304.523 181.389 302.78 180.373 300.788 180.373 299.603 180.373 298.408 180.712 297.023 181.1 295.26 181.618 293.248 182.206 290.719 182.206 288.886 182.206 287.013 181.897 285.012 181.26L284.304 183.73Z" fill="#123871" transform="matrix(1.00346 0 -0 1 262.188 40.981)"/><path d="M303.826 185.991 307.66 182.126 311.515 185.991Z" fill="#FFFFFF" transform="matrix(1.00346 0 -0 1 262.188 40.981)"/><path d="M312.302 186.309 303.019 186.309 307.66 181.658 312.302 186.309ZM304.613 185.652 310.728 185.652 307.67 182.604 304.613 185.652Z" fill="#123871" transform="matrix(1.00346 0 -0 1 262.188 40.981)"/><path d="M317.361 144.179 298.408 144.179 298.408 126.122 296.167 126.122 296.167 144.179 277.183 144.179 277.183 146.42 296.167 146.42 296.167 193.361 298.408 193.361 298.408 146.42 317.361 146.42Z" fill="#FFFFFF" transform="matrix(1.00346 0 -0 1 262.188 40.981)"/><path d="M298.567 193.53 295.997 193.53 295.997 146.579 277.034 146.579 277.034 144.02 295.997 144.02 295.997 125.962 298.567 125.962 298.567 144.02 317.54 144.02 317.54 146.579 298.567 146.579 298.567 193.53ZM296.326 193.201 298.238 193.201 298.238 146.251 317.212 146.251 317.212 144.338 298.238 144.338 298.238 126.261 296.326 126.261 296.326 144.338 277.352 144.338 277.352 146.251 296.326 146.251 296.326 193.201Z" fill="#123871" transform="matrix(1.00346 0 -0 1 262.188 40.981)"/></g></g></g></svg>