<svg width="272" height="271" xmlns="http://www.w3.org/2000/svg" xmlns:xlink="http://www.w3.org/1999/xlink" overflow="hidden"><defs><clipPath id="clip0"><path d="M276 203 548 203 548 474 276 474Z" fill-rule="evenodd" clip-rule="evenodd"/></clipPath><clipPath id="clip1"><path d="M277 203 547 203 547 473 277 473Z" fill-rule="evenodd" clip-rule="evenodd"/></clipPath><clipPath id="clip2"><path d="M277 203 547 203 547 473 277 473Z" fill-rule="evenodd" clip-rule="evenodd"/></clipPath></defs><g clip-path="url(#clip0)" transform="translate(-276 -203)"><g clip-path="url(#clip1)"><g clip-path="url(#clip2)"><path d="M-458.292 261.912C-446.586 261.912-440.559 267.28-440.449 276.197L-450.735 277.456C-450.845 272.588-453.254 270.949-458.282 270.949-466.158 270.949-467.368 277.236-467.368 284.133-467.368 291.03-466.168 297.318-458.282 297.318-453.244 297.318-450.835 295.678-450.735 290.81L-440.449 292.07C-440.559 300.986-446.576 306.354-458.292 306.354-472.356 306.354-477.604 297.438-477.604 284.143-477.604 270.839-472.346 261.912-458.292 261.912" fill="#1A3971" transform="matrix(1.00001 0 -0 1 107.397 125.847)"/><path d="M-436.9 284.133C-436.9 270.839-431.153 261.912-416.759 261.912-402.425 261.912-396.627 270.829-396.627 284.133-396.627 297.428-402.375 306.344-416.759 306.344-431.103 306.344-436.9 297.428-436.9 284.133M-426.675 284.133C-426.675 291.03-424.865 297.318-416.769 297.318-408.672 297.318-406.863 291.03-406.863 284.133-406.863 277.236-408.672 270.949-416.769 270.949-424.865 270.949-426.675 277.236-426.675 284.133" fill="#1A3971" transform="matrix(1.00001 0 -0 1 107.397 125.847)"/><path d="M-369.178 281.614-365.23 287.582-365.29 279.645-365.29 262.792-355.164 262.792-355.164 305.474-364.52 305.474-377.495 286.652-381.433 280.685-381.373 288.621-381.373 305.474-391.499 305.474-391.499 262.792-382.143 262.792Z" fill="#1A3971" transform="matrix(1.00001 0 -0 1 107.397 125.847)"/><path d="M-328.095 261.912-311.512 305.464-322.348 305.464-325.466 296.548-339.421 296.548-342.489 305.464-353.325 305.464-336.742 261.912-328.095 261.912ZM-336.522 288.341-328.315 288.341-332.423 276.516-336.522 288.341Z" fill="#1A3971" transform="matrix(1.00001 0 -0 1 107.397 125.847)"/><path d="M-290.95 261.912C-279.235 261.912-273.218 267.28-273.108 276.197L-283.394 277.456C-283.503 272.588-285.913 270.949-290.94 270.949-298.817 270.949-300.027 277.236-300.027 284.133-300.027 291.03-298.827 297.318-290.94 297.318-285.902 297.318-283.493 295.678-283.394 290.81L-273.108 292.07C-273.218 300.986-279.235 306.354-290.95 306.354-305.015 306.354-310.263 297.438-310.263 284.143-310.263 270.839-305.015 261.912-290.95 261.912" fill="#1A3971" transform="matrix(1.00001 0 -0 1 107.397 125.847)"/><path d="M-238.042 262.792-238.042 271.818-258.894 271.818-258.894 279.155-241.001 279.155-241.001 288.182-258.894 288.182-258.894 296.438-236.953 296.438-236.953 305.474-269.019 305.474-269.019 262.792Z" fill="#1A3971" transform="matrix(1.00001 0 -0 1 107.397 125.847)"/><path d="M-232.474 305.474-232.474 262.792-216.441 262.792C-202.597 262.792-195.76 269.409-195.76 284.133-195.76 298.847-202.597 305.474-216.441 305.474L-232.474 305.474ZM-216.441 296.438C-208.454 296.438-205.995 291.68-205.995 284.123-205.995 276.566-208.454 271.808-216.441 271.808L-222.349 271.808-222.349 296.428-216.441 296.428Z" fill="#1A3971" transform="matrix(1.00001 0 -0 1 107.397 125.847)"/><path d="M-475.575 314.911C-473.445 314.911-472.356 315.88-472.336 317.5L-474.205 317.729C-474.225 316.84-474.665 316.54-475.575 316.54-477.004 316.54-477.224 317.689-477.224 318.939-477.224 320.188-477.004 321.338-475.575 321.338-474.665 321.338-474.225 321.038-474.205 320.158L-472.336 320.388C-472.356 322.008-473.445 322.977-475.575 322.977-478.133 322.977-479.083 321.358-479.083 318.949-479.083 316.53-478.133 314.911-475.575 314.911" fill="#1A3971" transform="matrix(1.00001 0 -0 1 107.397 125.847)"/><path d="M-471.676 318.949C-471.676 316.53-470.637 314.911-468.018 314.911-465.409 314.911-464.359 316.53-464.359 318.949-464.359 321.358-465.399 322.987-468.018 322.987-470.627 322.987-471.676 321.358-471.676 318.949M-469.817 318.949C-469.817 320.198-469.487 321.348-468.018 321.348-466.548 321.348-466.218 320.208-466.218 318.949-466.218 317.689-466.548 316.55-468.018 316.55-469.497 316.55-469.817 317.699-469.817 318.949" fill="#1A3971" transform="matrix(1.00001 0 -0 1 107.397 125.847)"/><path d="M-459.361 318.489-458.652 319.579-458.661 318.139-458.661 315.071-456.822 315.071-456.822 322.827-458.522 322.827-460.871 319.409-461.59 318.319-461.58 319.759-461.58 322.827-463.42 322.827-463.42 315.071-461.72 315.071Z" fill="#1A3971" transform="matrix(1.00001 0 -0 1 107.397 125.847)"/><path d="M-453.943 322.827-455.783 322.827-455.783 315.071-450.175 315.071-450.175 316.71-453.943 316.71-453.943 318.049-450.705 318.049-450.705 319.689-453.943 319.689Z" fill="#1A3971" transform="matrix(1.00001 0 -0 1 107.397 125.847)"/><path d="M-443.888 315.071-443.888 316.71-447.666 316.71-447.666 318.049-444.417 318.049-444.417 319.689-447.666 319.689-447.666 321.188-443.688 321.188-443.688 322.827-449.505 322.827-449.505 315.071Z" fill="#1A3971" transform="matrix(1.00001 0 -0 1 107.397 125.847)"/><path d="M-442.868 322.827-442.868 315.071-439.959 315.071C-437.45 315.071-436.201 316.27-436.201 318.949-436.201 321.618-437.44 322.827-439.959 322.827L-442.868 322.827ZM-439.949 321.188C-438.5 321.188-438.05 320.318-438.05 318.949-438.05 317.579-438.5 316.71-439.949 316.71L-441.029 316.71-441.029 321.188-439.949 321.188Z" fill="#1A3971" transform="matrix(1.00001 0 -0 1 107.397 125.847)"/><path d="M-429.643 315.071-429.643 316.71-433.432 316.71-433.432 318.049-430.183 318.049-430.183 319.689-433.432 319.689-433.432 321.188-429.444 321.188-429.444 322.827-435.271 322.827-435.271 315.071Z" fill="#1A3971" transform="matrix(1.00001 0 -0 1 107.397 125.847)"/><path d="M-426.785 322.827-428.624 322.827-428.624 315.071-425.195 315.071C-423.796 315.071-422.276 315.47-422.276 317.609-422.276 318.969-422.876 319.629-423.666 319.929L-421.897 322.827-424.106 322.827-425.615 320.158-426.785 320.158-426.785 322.827ZM-425.055 318.499C-424.665 318.499-424.136 318.429-424.136 317.609-424.136 316.79-424.665 316.71-425.055 316.71L-426.785 316.71-426.785 318.499-425.055 318.499Z" fill="#1A3971" transform="matrix(1.00001 0 -0 1 107.397 125.847)"/><path d="M-417.518 314.911-414.51 322.817-416.479 322.817-417.049 321.198-419.588 321.198-420.147 322.817-422.117 322.817-419.108 314.911-417.518 314.911ZM-419.058 319.719-417.568 319.719-418.318 317.569-419.058 319.719Z" fill="#1A3971" transform="matrix(1.00001 0 -0 1 107.397 125.847)"/><path d="M-410.761 314.911C-408.632 314.911-407.543 315.88-407.523 317.5L-409.392 317.729C-409.412 316.84-409.852 316.54-410.761 316.54-412.191 316.54-412.41 317.689-412.41 318.939-412.41 320.188-412.191 321.338-410.761 321.338-409.852 321.338-409.412 321.038-409.392 320.158L-407.523 320.388C-407.543 322.008-408.632 322.977-410.761 322.977-413.32 322.977-414.27 321.358-414.27 318.949-414.27 316.53-413.32 314.911-410.761 314.911" fill="#1A3971" transform="matrix(1.00001 0 -0 1 107.397 125.847)"/><path d="M-406.663 315.071-404.824 315.071-404.824 322.827-406.663 322.827Z" fill="#1A3971" transform="matrix(1.00001 0 -0 1 107.397 125.847)"/><path d="M-403.774 318.949C-403.774 316.53-402.734 314.911-400.116 314.911-397.517 314.911-396.457 316.53-396.457 318.949-396.457 321.358-397.497 322.987-400.116 322.987-402.725 322.987-403.774 321.358-403.774 318.949M-401.915 318.949C-401.915 320.198-401.585 321.348-400.116 321.348-398.646 321.348-398.316 320.208-398.316 318.949-398.316 317.699-398.646 316.55-400.116 316.55-401.585 316.55-401.915 317.699-401.915 318.949M-398.166 312.592-399.266 314.661-401.045 314.661-400.116 312.592-398.166 312.592Z" fill="#1A3971" transform="matrix(1.00001 0 -0 1 107.397 125.847)"/><path d="M-391.459 318.489-390.739 319.579-390.749 318.139-390.749 315.071-388.92 315.071-388.92 322.827-390.619 322.827-392.969 319.409-393.688 318.319-393.678 319.759-393.678 322.827-395.517 322.827-395.517 315.071-393.818 315.071Z" fill="#1A3971" transform="matrix(1.00001 0 -0 1 107.397 125.847)"/><path d="M-381.633 318.489-380.913 319.579-380.923 318.139-380.923 315.071-379.084 315.071-379.084 322.827-380.784 322.827-383.143 319.409-383.852 318.319-383.842 319.759-383.842 322.827-385.681 322.827-385.681 315.071-383.982 315.071Z" fill="#1A3971" transform="matrix(1.00001 0 -0 1 107.397 125.847)"/><path d="M-374.156 314.911-371.147 322.817-373.117 322.817-373.686 321.198-376.225 321.198-376.785 322.817-378.754 322.817-375.746 314.911-374.156 314.911ZM-375.686 319.719-374.196 319.719-374.946 317.569-375.686 319.719Z" fill="#1A3971" transform="matrix(1.00001 0 -0 1 107.397 125.847)"/><path d="M-367.399 314.911C-365.27 314.911-364.18 315.88-364.16 317.5L-366.03 317.729C-366.05 316.84-366.489 316.54-367.399 316.54-368.828 316.54-369.048 317.689-369.048 318.939-369.048 320.188-368.828 321.338-367.399 321.338-366.479 321.338-366.05 321.038-366.03 320.158L-364.16 320.388C-364.18 322.008-365.27 322.977-367.399 322.977-369.958 322.977-370.908 321.358-370.908 318.949-370.908 316.53-369.958 314.911-367.399 314.911" fill="#1A3971" transform="matrix(1.00001 0 -0 1 107.397 125.847)"/><path d="M-363.291 315.071-361.451 315.071-361.451 322.827-363.291 322.827Z" fill="#1A3971" transform="matrix(1.00001 0 -0 1 107.397 125.847)"/><path d="M-360.412 318.949C-360.412 316.53-359.372 314.911-356.753 314.911-354.144 314.911-353.095 316.53-353.095 318.949-353.095 321.358-354.134 322.987-356.753 322.987-359.352 322.987-360.412 321.358-360.412 318.949M-358.553 318.949C-358.553 320.198-358.223 321.348-356.753 321.348-355.284 321.348-354.954 320.208-354.954 318.949-354.954 317.689-355.284 316.55-356.753 316.55-358.223 316.55-358.553 317.699-358.553 318.949" fill="#1A3971" transform="matrix(1.00001 0 -0 1 107.397 125.847)"/><path d="M-348.097 318.489-347.377 319.579-347.387 318.139-347.387 315.071-345.548 315.071-345.548 322.827-347.247 322.827-349.606 319.409-350.326 318.319-350.316 319.759-350.316 322.827-352.155 322.827-352.155 315.071-350.446 315.071Z" fill="#1A3971" transform="matrix(1.00001 0 -0 1 107.397 125.847)"/><path d="M-340.62 314.911-337.611 322.817-339.58 322.817-340.15 321.198-342.679 321.198-343.239 322.817-345.208 322.817-342.199 314.911-340.62 314.911ZM-342.149 319.719-340.66 319.719-341.41 317.569-342.149 319.719Z" fill="#1A3971" transform="matrix(1.00001 0 -0 1 107.397 125.847)"/><path d="M-335.422 321.188-331.894 321.188-331.894 322.827-337.261 322.827-337.261 315.071-335.422 315.071Z" fill="#1A3971" transform="matrix(1.00001 0 -0 1 107.397 125.847)"/><path d="M-325.706 314.911C-323.577 314.911-322.487 315.88-322.467 317.5L-324.337 317.729C-324.357 316.84-324.797 316.54-325.706 316.54-327.136 316.54-327.355 317.689-327.355 318.939-327.355 320.188-327.136 321.338-325.706 321.338-324.797 321.338-324.357 321.038-324.337 320.158L-322.467 320.388C-322.487 322.008-323.577 322.977-325.706 322.977-328.265 322.977-329.215 321.358-329.215 318.949-329.215 316.53-328.255 314.911-325.706 314.911" fill="#1A3971" transform="matrix(1.00001 0 -0 1 107.397 125.847)"/><path d="M-317.829 314.911-314.821 322.817-316.79 322.817-317.36 321.198-319.899 321.198-320.458 322.817-322.427 322.817-319.419 314.911-317.829 314.911ZM-319.359 319.719-317.869 319.719-318.619 317.569-319.359 319.719Z" fill="#1A3971" transform="matrix(1.00001 0 -0 1 107.397 125.847)"/><path d="M-311.542 322.827-313.381 322.827-313.381 316.71-315.51 316.71-315.51 315.071-309.413 315.071-309.413 316.71-311.542 316.71Z" fill="#1A3971" transform="matrix(1.00001 0 -0 1 107.397 125.847)"/><path d="M-309.223 318.949C-309.223 316.53-308.173 314.911-305.564 314.911-302.965 314.911-301.906 316.53-301.906 318.949-301.906 321.358-302.945 322.987-305.564 322.987-308.173 322.987-309.223 321.358-309.223 318.949M-307.364 318.949C-307.364 320.198-307.034 321.348-305.564 321.348-304.095 321.348-303.765 320.208-303.765 318.949-303.765 317.699-304.095 316.55-305.564 316.55-307.034 316.55-307.364 317.699-307.364 318.949M-303.615 312.592-304.715 314.661-306.494 314.661-305.564 312.592-303.615 312.592Z" fill="#1A3971" transform="matrix(1.00001 0 -0 1 107.397 125.847)"/><path d="M-299.127 321.188-295.599 321.188-295.599 322.827-300.966 322.827-300.966 315.071-299.127 315.071Z" fill="#1A3971" transform="matrix(1.00001 0 -0 1 107.397 125.847)"/><path d="M-294.889 315.071-293.05 315.071-293.05 322.827-294.889 322.827Z" fill="#1A3971" transform="matrix(1.00001 0 -0 1 107.397 125.847)"/><path d="M-288.501 314.911C-286.372 314.911-285.283 315.88-285.263 317.5L-287.132 317.729C-287.152 316.84-287.592 316.54-288.501 316.54-289.931 316.54-290.151 317.689-290.151 318.939-290.151 320.188-289.931 321.338-288.501 321.338-287.592 321.338-287.152 321.038-287.132 320.158L-285.263 320.388C-285.283 322.008-286.372 322.977-288.501 322.977-291.06 322.977-292.01 321.358-292.01 318.949-292.01 316.53-291.05 314.911-288.501 314.911" fill="#1A3971" transform="matrix(1.00001 0 -0 1 107.397 125.847)"/><path d="M-280.615 314.911-277.606 322.817-279.575 322.817-280.145 321.198-282.684 321.198-283.244 322.817-285.213 322.817-282.204 314.911-280.615 314.911ZM-282.144 319.719-280.655 319.719-281.404 317.569-282.144 319.719Z" fill="#1A3971" transform="matrix(1.00001 0 -0 1 107.397 125.847)"/><path d="M-275.077 322.827-275.077 315.071-272.168 315.071C-269.659 315.071-268.41 316.27-268.41 318.949-268.41 321.618-269.649 322.827-272.168 322.827L-275.077 322.827ZM-272.158 321.188C-270.709 321.188-270.259 320.318-270.259 318.949-270.259 317.579-270.709 316.71-272.158 316.71L-273.238 316.71-273.238 321.188-272.158 321.188Z" fill="#1A3971" transform="matrix(1.00001 0 -0 1 107.397 125.847)"/><path d="M-261.852 315.071-261.852 316.71-265.641 316.71-265.641 318.049-262.392 318.049-262.392 319.689-265.641 319.689-265.641 321.188-261.652 321.188-261.652 322.827-267.48 322.827-267.48 315.071Z" fill="#1A3971" transform="matrix(1.00001 0 -0 1 107.397 125.847)"/><path d="M-253.016 315.071-253.016 316.71-256.804 316.71-256.804 318.049-253.556 318.049-253.556 319.689-256.804 319.689-256.804 321.188-252.816 321.188-252.816 322.827-258.644 322.827-258.644 315.071Z" fill="#1A3971" transform="matrix(1.00001 0 -0 1 107.397 125.847)"/><path d="M-251.996 322.827-251.996 315.071-249.088 315.071C-246.579 315.071-245.329 316.27-245.329 318.949-245.329 321.618-246.569 322.827-249.088 322.827L-251.996 322.827ZM-249.078 321.188C-247.628 321.188-247.178 320.318-247.178 318.949-247.178 317.579-247.628 316.71-249.078 316.71L-250.157 316.71-250.157 321.188-249.078 321.188Z" fill="#1A3971" transform="matrix(1.00001 0 -0 1 107.397 125.847)"/><path d="M-239.761 319.939-239.761 315.081-237.922 315.081-237.922 319.978C-237.922 321.698-238.632 322.987-241.211 322.987-243.8 322.987-244.5 321.698-244.5 319.978L-244.5 315.081-242.66 315.081-242.66 319.939C-242.66 320.718-242.51 321.358-241.211 321.358-239.911 321.358-239.761 320.708-239.761 319.939" fill="#1A3971" transform="matrix(1.00001 0 -0 1 107.397 125.847)"/><path d="M-233.574 314.911C-231.445 314.911-230.355 315.88-230.335 317.5L-232.205 317.729C-232.225 316.84-232.664 316.54-233.574 316.54-235.003 316.54-235.223 317.689-235.223 318.939-235.223 320.188-235.003 321.338-233.574 321.338-232.664 321.338-232.225 321.038-232.205 320.158L-230.335 320.388C-230.355 322.008-231.445 322.977-233.574 322.977-236.133 322.977-237.083 321.358-237.083 318.949-237.083 316.53-236.133 314.911-233.574 314.911" fill="#1A3971" transform="matrix(1.00001 0 -0 1 107.397 125.847)"/><path d="M-225.697 314.911-222.688 322.817-224.658 322.817-225.227 321.198-227.766 321.198-228.326 322.817-230.295 322.817-227.287 314.911-225.697 314.911ZM-227.227 319.719-225.737 319.719-226.487 317.569-227.227 319.719Z" fill="#1A3971" transform="matrix(1.00001 0 -0 1 107.397 125.847)"/><path d="M-218.94 314.911C-216.811 314.911-215.721 315.88-215.701 317.5L-217.571 317.729C-217.591 316.84-218.02 316.54-218.94 316.54-220.369 316.54-220.589 317.689-220.589 318.939-220.589 320.188-220.369 321.338-218.94 321.338-218.02 321.338-217.591 321.038-217.571 320.158L-215.701 320.388C-215.721 322.008-216.811 322.977-218.94 322.977-221.499 322.977-222.449 321.358-222.449 318.949-222.449 316.53-221.499 314.911-218.94 314.911" fill="#1A3971" transform="matrix(1.00001 0 -0 1 107.397 125.847)"/><path d="M-214.842 315.071-213.002 315.071-213.002 322.827-214.842 322.827Z" fill="#1A3971" transform="matrix(1.00001 0 -0 1 107.397 125.847)"/><path d="M-211.953 318.949C-211.953 316.53-210.903 314.911-208.294 314.911-205.685 314.911-204.636 316.53-204.636 318.949-204.636 321.358-205.675 322.987-208.294 322.987-210.903 322.987-211.953 321.358-211.953 318.949M-210.094 318.949C-210.094 320.198-209.764 321.348-208.294 321.348-206.825 321.348-206.495 320.208-206.495 318.949-206.495 317.699-206.825 316.55-208.294 316.55-209.764 316.55-210.094 317.699-210.094 318.949M-206.345 312.592-207.445 314.661-209.224 314.661-208.294 312.592-206.345 312.592Z" fill="#1A3971" transform="matrix(1.00001 0 -0 1 107.397 125.847)"/><path d="M-199.638 318.489-198.918 319.579-198.928 318.139-198.928 315.071-197.089 315.071-197.089 322.827-198.788 322.827-201.147 319.409-201.867 318.319-201.857 319.759-201.857 322.827-203.696 322.827-203.696 315.071-201.997 315.071Z" fill="#1A3971" transform="matrix(1.00001 0 -0 1 107.397 125.847)"/><path d="M-479.543 310.173-194.43 310.173-194.43 310.522-479.543 310.522Z" fill="#1A3971" fill-rule="evenodd" transform="matrix(1.00001 0 -0 1 107.397 125.847)"/><path d="M-254.136 166.731C-254.136 212.163-290.95 248.998-336.392 248.998-381.823 248.998-418.638 212.163-418.638 166.731-418.638 121.29-381.823 84.4753-336.392 84.4753-290.95 84.4753-254.136 121.29-254.136 166.731" fill="#FFFFFF" transform="matrix(1.00001 0 -0 1 107.397 125.847)"/><path d="M-336.392 250.957C-382.833 250.957-420.617 213.172-420.617 166.731-420.617 120.281-382.833 82.5061-336.392 82.5061-289.941 82.5061-252.156 120.281-252.156 166.731-252.156 213.172-289.941 250.957-336.392 250.957M-336.392 86.4445C-380.664 86.4445-416.679 122.45-416.679 166.731-416.679 211.003-380.674 247.018-336.392 247.018-292.11 247.018-256.085 211.013-256.085 166.731-256.085 122.45-292.11 86.4445-336.392 86.4445" fill="#123871" transform="matrix(1.00001 0 -0 1 107.397 125.847)"/><path d="M-370.198 148.019-366.289 147.929-370.198 148.019Z" fill="#123871" transform="matrix(1.00001 0 -0 1 107.397 125.847)"/><path d="M-368.908 140.862-371.457 140.842-368.908 140.862Z" fill="#123871" transform="matrix(1.00001 0 -0 1 107.397 125.847)"/><path d="M-365.02 192.091-365.02 192.091C-365.05 191.971-365.12 191.641-365.13 191.581-365.11 191.661-365.05 191.971-365.02 192.091" fill="#123871" transform="matrix(1.00001 0 -0 1 107.397 125.847)"/><path d="M-372.587 165.672-371.237 166.532-372.587 165.672Z" fill="#123871" transform="matrix(1.00001 0 -0 1 107.397 125.847)"/><path d="M-362.651 161.034-362.121 161.534-364.28 159.504Z" fill="#123871" transform="matrix(1.00001 0 -0 1 107.397 125.847)"/><path d="M-353.285 130.676-353.265 130.676-353.275 130.726-353.215 130.436-353.265 130.676Z" fill="#123871" transform="matrix(1.00001 0 -0 1 107.397 125.847)"/><path d="M-350.686 165.472-350.676 165.642-350.636 165.582-351.206 164.422Z" fill="#123871" transform="matrix(1.00001 0 -0 1 107.397 125.847)"/><path d="M-282.424 189.332-283.753 185.344-284.243 183.105-285.363 182.125-285.223 180.596-287.512 178.567-288.212 178.497-288.571 177.517-291.35 176.887-287.162 173.389-285.982 172.629-286.252 171.37-287.862 168.571-288.841 168.771-289.461 166.322-290.391 164.852-290.181 162.693-291.22 161.784-290.531 158.715-290.87 155.506-289.141 154.247-288.501 153.607-289.141 152.487-288.721 150.878-287.122 149.409-287.742 147.869-288.371 147.1-290.241 146.62-292 147.669-292.77 147.399-298.647 147.799-301.796 147.399-303.895 148.719-304.875 148.289-305.714 147.949-311.432 141.162-312.292 140.882-312.771 141.442-313.541 141.442C-312.771 141.442-315.99 140.262-315.99 140.262L-317.949 140.182-319.349 141.162-328.405 140.732-329.685 138.363-329.724 137.523-331.894 137.473-332.593 135.354-332.643 132.965-331.604 132.506-331.704 129.127-334.153 126.748-335.382 122.83-336.512 122.59-337.301 121.4-338.341 121.31-338.561 121.65-338.531 120.61-338.481 120.421-338.261 120.031-337.871 120.001-337.841 119.351-336.772 117.792-336.622 117.342-337.161 117.392-336.772 116.842-336.622 116.382-337.161 116.442-337.171 116.332-336.822 115.722-336.432 115.682-336.372 113.903-336.312 113.673-336.402 113.813-336.392 113.353-336.352 112.864-336.312 112.714-331.854 105.737-330.524 105.437-328.065 100.998-326.046 100.869-322.937 99.4991-320.488 97.6899-321.968 95.2309-323.877 94.3612-325.696 94.3012-327.965 95.5207-327.525 96.5203-328.305 96.7602-328.705 95.8306-330.024 95.8306-330.024 97.8498-331.504 99.3592-332.773 99.809-335.272 100.499-339.91 104.247-342.529 104.387-344.808 104.247-346.038 103.497-347.567 103.447-348.307 104.247-348.217 106.286-348.947 106.686-350.426 106.746-352.685 105.866-353.665 105.866-353.915 105.717-356.024 107.916-357.253 108.465-357.293 109.845-357.263 108.675C-357.613 108.865-359.512 109.935-359.512 109.935L-359.562 114.793-360.632 116.052-360.722 116.942-361.302 117.612-360.952 118.191-360.242 118.251-360.412 119.441-361.222 120.181-361.182 120.151-361.222 120.111-363.031 119.991-364.64 120.76-365.44 121.83-365.94 122.87-366.699 123.729-367.829 124.749-370.388 126.598-371.777 126.808-372.277 127.538-370.878 128.697-370.848 131.126-372.267 131.596-372.847 129.967-373.886 128.997-375.456 127.608-375.586 127.158-376.355 127.118-376.755 128.227-375.626 130.077-374.816 131.776-374.866 133.395-375.806 133.845-377.545 135.984-378.444 136.364-378.844 135.045-379.664 135.094-379.474 136.794-380.384 136.844-380.574 139.093-378.774 140.622-379.314 141.252-379.404 141.962-378.095 142.501-377.735 143.351-376.575 143.401-376.355 144.431-376.575 147.219-377.155 147.939-376.485 148.839-375.995 150.278-375.266 151.498-376.205 152.877-377.735 152.877-377.795 153.817-376.575 153.817-376.575 156.306-376.485 159.035-375.586 160.244-376.035 160.714-376.255 162.903-376.885 163.303-377.165 165.012-374.916 165.132-373.896 165.722-374.936 165.132-377.175 165.012-377.315 166.062-376.365 167.061-375.226 166.292-374.996 166.252-375.446 166.771-375.856 167.311-375.156 168.071-374.446 167.311-373.796 167.061-374.106 168.171-374.806 168.481-374.906 170.02-376.015 170.37-376.255 171.779-377.005 171.929-377.675 172.759-377.705 172.759-378.165 173.549-379.004 174.588-379.724 176.697-380.324 177.107-381.133 177.407-382.183 177.977-381.963 177.867-385.512 177.977-385.711 178.677-387.371 180.336-387.551 183.255-386.651 184.424-386.761 185.474-389.12 185.474C-389.12 185.474-390.14 186.683-390.43 186.683-390.729 186.683-389.73 187.583-390.24 187.583-390.729 187.583-389.18 188.133-389.18 188.133L-386.771 190.652-383.292 193.161-381.643 194.11-380.194 194.17-378.924 194.11-378.974 195.17-377.615 195.82-377.315 197.889-373.996 198.039-373.147 198.948-370.778 199.288-367.959 199.228-367.829 197.699-366.779 197.609-364.68 198.748-362.651 200.967-360.212 201.617-357.693 202.377-357.273 201.467-354.124 203.496-353.145 202.867-353.145 204.486-352.375 204.686-350.066 206.235-349.316 205.995-347.177 207.715-347.177 209.454-346.438 210.743-345.148 212.023-344.139 211.753-343.309 212.673-342.949 213.592-341.38 213.592-339.361 216.451-339.83 217.541-338.541 218.47-337.161 218.19-336.252 220.959-336.902 221.689-336.622 223.058-335.432 222.868-334.972 223.608-333.323 223.788-332.223 223.058-330.564 224.068-328.815 223.788-328.075 222.958-326.786 222.778-325.596 221.219-324.677 221.599-323.387 221.689-322.917 222.419-322.368 223.158-321.358 223.068-318.969 221.779-317.689 221.969-316.2 222.609-316.12 223.798-314.921 223.438-314.271 223.988-313.261 224.348-310.952 226.187-316.19 235.013-315.28 235.763-314.261 235.203-313.071 235.203-311.972 236.683-311.332 237.872-310.692 238.702-309.773 239.242-308.013 228.936-306.004 217.181-305.085 211.293-305.135 211.243-304.835 209.804-306.944 207.435-306.384 206.245-306.734 205.336-310.722 202.677-310.722 196.519-308.413 196.369-306.814 195.959-306.184 195.06-304.925 196.099-302.955 196.249-302.466 195.27-302.536 193.59-303.665 191.911-308.913 191.831-308.843 186.443-307.014 186.373-305.335 186.373-294.009 186.733-294.779 185.604-294.129 184.144-292.12 186.243-290.98 186.803-291.05 185.124-289.591 184.694-287.552 182.615-286.382 182.735-286.522 185.274-284.823 187.023-284.273 190.012-284.063 191.841-282.304 191.281-282.424 189.332Z" fill="#123871" transform="matrix(1.00001 0 -0 1 107.397 125.847)"/><path d="M-336.982 184.734C-329.505 175.488-326.906 185.584-314.461 181.525-316.21 175.508-319.889 162.913-320.688 160.134-330.064 163.473-331.774 155.606-337.421 162.953L-337.421 184.734-336.982 184.734Z" fill="#FFFFFF" transform="matrix(1.00001 0 -0 1 107.397 125.847)"/><path d="M-336.822 185.044-337.741 185.044-337.741 162.823-337.681 162.753C-335.852 160.384-334.323 159.375-332.513 159.375-331.594 159.375-330.664 159.644-329.685 159.924-328.465 160.274-327.076 160.664-325.356 160.664-323.907 160.664-322.427 160.394-320.818 159.824L-320.478 159.704-314.061 181.725-314.371 181.815C-316.5 182.515-318.479 182.855-320.418 182.855-322.957 182.855-324.966 182.265-326.736 181.745-328.125 181.355-329.325 181.016-330.524 181.016-332.663 181.016-334.513 182.185-336.732 184.914L-336.822 185.044ZM-337.091 163.063-337.091 184.334C-334.792 181.555-332.823 180.356-330.514 180.356-329.225 180.356-327.925 180.746-326.546 181.136-324.817 181.635-322.857 182.195-320.408 182.195-318.629 182.195-316.8 181.915-314.851 181.305L-320.898 160.564C-322.457 161.084-323.927 161.334-325.336 161.334-327.146 161.334-328.585 160.924-329.844 160.564-330.824 160.274-331.674 160.024-332.503 160.024-333.603 160.024-335.002 160.384-337.091 163.063" fill="#123871" transform="matrix(1.00001 0 -0 1 107.397 125.847)"/><path d="M-337.851 184.734-337.411 184.734-337.411 162.953C-343.039 155.616-344.738 163.483-354.134 160.134-354.954 162.913-358.613 175.508-360.372 181.525-347.917 185.584-345.318 175.488-337.851 184.734" fill="#FFFFFF" transform="matrix(1.00001 0 -0 1 107.397 125.847)"/><path d="M-337.091 185.044-338.011 185.044-338.111 184.934C-340.33 182.195-342.169 181.026-344.318 181.026-345.508 181.026-346.708 181.365-348.097 181.755-349.866 182.275-351.875 182.865-354.404 182.865L-354.424 182.865C-356.364 182.865-358.343 182.525-360.472 181.825L-360.772 181.735-354.354 159.714-354.025 159.834C-352.415 160.404-350.906 160.674-349.476 160.674-347.757 160.674-346.368 160.284-345.148 159.934-344.149 159.654-343.219 159.384-342.299 159.384-340.5 159.384-338.961 160.394-337.141 162.763L-337.081 162.833-337.081 185.044ZM-344.318 180.356C-342.009 180.356-340.03 181.545-337.731 184.334L-337.731 163.063C-339.81 160.384-341.2 160.024-342.309 160.024-343.139 160.024-343.979 160.274-344.958 160.564-346.228 160.924-347.657 161.334-349.476 161.334-350.896 161.334-352.355 161.084-353.915 160.564L-359.962 181.305C-358.023 181.915-356.204 182.195-354.424 182.195L-354.404 182.195C-351.955 182.195-350.006 181.635-348.277 181.136-346.897 180.736-345.608 180.356-344.318 180.356" fill="#123871" transform="matrix(1.00001 0 -0 1 107.397 125.847)"/><path d="M-336.982 184.734-313.521 184.734C-313.521 184.734-313.881 183.455-314.461 181.525-326.906 185.584-329.495 175.488-336.982 184.734" fill="#FFFFFF" transform="matrix(1.00001 0 -0 1 107.397 125.847)"/><path d="M-313.081 185.044-337.651 185.044-337.221 184.514C-334.872 181.605-332.853 180.346-330.504 180.346-329.215 180.346-327.915 180.736-326.536 181.126-324.807 181.635-322.847 182.185-320.398 182.185-318.529 182.185-316.61 181.865-314.551 181.196L-314.231 181.086-313.081 185.044ZM-336.272 184.394-313.961 184.394-314.681 181.915C-316.68 182.565-318.559 182.875-320.398 182.875-322.937 182.875-324.946 182.285-326.716 181.765-328.105 181.375-329.305 181.036-330.504 181.036-332.493 181.036-334.253 182.045-336.272 184.394" fill="#123871" transform="matrix(1.00001 0 -0 1 107.397 125.847)"/><path d="M-337.851 184.734C-345.308 175.488-347.917 185.584-360.362 181.525-360.932 183.465-361.292 184.734-361.292 184.734L-337.851 184.734Z" fill="#FFFFFF" transform="matrix(1.00001 0 -0 1 107.397 125.847)"/><path d="M-337.161 185.044-361.751 185.044-360.592 181.086-360.272 181.196C-358.203 181.865-356.294 182.185-354.424 182.185-351.965 182.185-350.006 181.625-348.277 181.126-346.907 180.726-345.608 180.346-344.318 180.346-341.959 180.346-339.95 181.605-337.591 184.514L-337.161 185.044ZM-360.862 184.394-338.551 184.394C-340.57 182.045-342.319 181.026-344.318 181.026-345.508 181.026-346.708 181.365-348.097 181.755-349.866 182.275-351.885 182.865-354.424 182.865-356.264 182.865-358.143 182.555-360.152 181.915L-360.862 184.394Z" fill="#123871" transform="matrix(1.00001 0 -0 1 107.397 125.847)"/><path d="M-341.27 186.663-337.411 182.785-333.553 186.663Z" fill="#FFFFFF" transform="matrix(1.00001 0 -0 1 107.397 125.847)"/><path d="M-332.753 186.983-342.069 186.983-337.411 182.315-332.753 186.983ZM-340.48 186.323-334.343 186.323-337.411 183.265-340.48 186.323Z" fill="#123871" transform="matrix(1.00001 0 -0 1 107.397 125.847)"/><path d="M-327.675 144.701-346.708 144.701-346.708 126.578-348.957 126.578-348.957 144.701-367.999 144.701-367.999 146.95-348.957 146.95-348.957 194.06-346.708 194.06-346.708 146.95-327.675 146.95Z" fill="#FFFFFF" transform="matrix(1.00001 0 -0 1 107.397 125.847)"/><path d="M-346.548 194.23-349.126 194.23-349.126 147.11-368.159 147.11-368.159 144.541-349.126 144.541-349.126 126.418-346.548 126.418-346.548 144.541-327.505 144.541-327.505 147.11-346.548 147.11-346.548 194.23ZM-348.797 193.9-346.877 193.9-346.877 146.78-327.835 146.78-327.835 144.86-346.877 144.86-346.877 126.718-348.797 126.718-348.797 144.86-367.839 144.86-367.839 146.78-348.797 146.78-348.797 193.9Z" fill="#123871" transform="matrix(1.00001 0 -0 1 107.397 125.847)"/><path d="M305.255 82.3362C320.818 82.3362 333.503 95.1009 333.503 110.754 333.503 126.408 320.818 139.163 305.255 139.163 289.701 139.163 277.006 126.398 277.006 110.754 277.006 95.1109 289.701 82.3362 305.255 82.3362" fill="#FF671D" fill-rule="evenodd" transform="matrix(1.00001 0 -0 1 107.397 125.847)"/><path d="M202.377 174.028 202.377 174.138C202.277 174.608 202.237 174.958 202.237 175.178 202.237 176.647 203.077 177.737 204.726 178.457 206.405 179.166 208.994 179.526 212.493 179.526 215.162 179.526 217.241 179.236 218.75 178.647 220.269 178.067 221.029 177.257 221.029 176.228 221.029 174.678 218.03 173.429 212.053 172.449 211.353 172.339 210.823 172.249 210.493 172.199 210.114 172.129 209.544 172.029 208.814 171.919 199.318 170.36 193.211 168.681 190.512 166.861 189.202 165.972 188.193 164.932 187.513 163.723 186.863 162.513 186.523 161.154 186.523 159.644 186.523 155.926 188.702 153.097 193.071 151.158 197.439 149.219 203.816 148.249 212.223 148.249 220.529 148.249 226.677 149.149 230.675 150.968 234.674 152.797 236.673 155.596 236.673 159.375L236.673 159.814 220.949 159.814 220.949 159.644C220.949 158.335 220.16 157.365 218.57 156.696 216.981 156.026 214.642 155.686 211.573 155.686 209.194 155.686 207.345 155.926 206.065 156.406 204.766 156.886 204.116 157.565 204.116 158.445 204.116 160.024 207.545 161.344 214.402 162.463 215.721 162.663 216.761 162.823 217.511 162.943 222.399 163.763 225.877 164.462 227.946 165.052 230.025 165.632 231.805 166.332 233.314 167.131 234.983 168.051 236.293 169.21 237.193 170.6 238.102 171.999 238.552 173.519 238.552 175.188 238.552 179.016 236.173 181.955 231.425 184.024 226.667 186.084 219.82 187.113 210.903 187.113 202.077 187.113 195.69 186.124 191.741 184.144 187.793 182.155 185.834 178.986 185.834 174.598L185.834 174.038 202.377 174.038ZM245.469 186.463 245.469 148.809 290.301 148.809 290.301 156.926 262.302 156.926 262.302 162.923 288.192 162.923 288.192 170.94 262.302 170.94 262.302 178.247 291.36 178.247 291.36 186.463 245.469 186.463ZM298.397 186.463 298.397 148.809 319.709 148.809 342.519 174.078 342.519 148.809 358.693 148.809 358.693 186.463 336.592 186.463 314.531 161.114 314.531 186.463 298.397 186.463ZM402.185 171.45 394.128 157.765 385.612 171.45 402.185 171.45ZM376.535 186.463 359.652 186.463 385.721 148.809 404.404 148.809 429.264 186.463 410.521 186.463 406.723 179.666 380.604 179.666 376.535 186.463Z" fill="#FF671D" fill-rule="evenodd" transform="matrix(1.00001 0 -0 1 107.397 125.847)"/><path d="M223.078 319.239 208.035 305.095 253.826 225.637C256.325 221.299 253.196 215.891 248.198 215.891 222.369 215.891 173.249 215.891 173.249 215.891L173.249 196.019 293.879 196.019 223.078 319.239Z" fill="#FF671D" fill-rule="evenodd" transform="matrix(1.00001 0 -0 1 107.397 125.847)"/><path d="M386.121 319.239 401.165 305.095 355.374 225.637C352.875 221.299 356.004 215.891 361.002 215.891 386.831 215.891 435.951 215.891 435.951 215.891L435.951 196.019 315.32 196.019 386.121 319.239Z" fill="#FF671D" fill-rule="evenodd" transform="matrix(1.00001 0 -0 1 107.397 125.847)"/><path d="M304.435 217.021C304.545 216.831 304.605 216.741 304.605 216.741L372.587 329.105 354.534 338.501 310.732 265.141C308.153 260.823 301.896 260.813 299.327 265.141 284.723 289.751 255.805 338.501 255.805 338.501L238.132 329.764C238.122 329.754 300.806 223.188 304.435 217.021Z" fill="#FF671D" fill-rule="evenodd" transform="matrix(1.00001 0 -0 1 107.397 125.847)"/></g></g></g></svg>